<svg width="1920" height="5399" viewBox="0 0 1920 5399" fill="none" xmlns="http://www.w3.org/2000/svg">
<rect x="1920" y="5399" width="1920" height="3780" transform="rotate(-180 1920 5399)" fill="url(#paint0_linear_11137_141)"/>
<rect width="1920" height="1704" fill="url(#paint1_linear_11137_141)"/>
<mask id="mask0_11137_141" style="mask-type:alpha" maskUnits="userSpaceOnUse" x="0" y="0" width="1920" height="847">
<rect width="1920" height="846.111" fill="url(#paint2_linear_11137_141)"/>
</mask>
<g mask="url(#mask0_11137_141)">
<g filter="url(#filter0_f_11137_141)">
<path fill-rule="evenodd" clip-rule="evenodd" d="M173.58 561.812C-246.197 739.171 -970.166 508.556 -463.147 328.55C-382.071 299.766 -225.937 -0.791652 -95.3025 7.37456C34.4131 15.4833 114.074 328.924 228.568 366.873C360.555 410.621 475.909 428.816 495.227 486.831C514.938 546.028 260.428 525.118 173.58 561.812Z" fill="#C1CAF9"/>
</g>
<g filter="url(#filter1_f_11137_141)">
<path fill-rule="evenodd" clip-rule="evenodd" d="M1551.3 561.812C1971.08 739.171 2695.05 508.556 2188.03 328.55C2106.95 299.766 1950.82 -0.791652 1820.18 7.37456C1690.47 15.4833 1610.8 328.924 1496.31 366.873C1364.32 410.621 1248.97 428.816 1229.65 486.831C1209.94 546.028 1464.45 525.118 1551.3 561.812Z" fill="#ABE4D6"/>
</g>
</g>
<defs>
<filter id="filter0_f_11137_141" x="-1036.73" y="-392.789" width="1933.04" height="1418.3" filterUnits="userSpaceOnUse" color-interpolation-filters="sRGB">
<feFlood flood-opacity="0" result="BackgroundImageFix"/>
<feBlend mode="normal" in="SourceGraphic" in2="BackgroundImageFix" result="shape"/>
<feGaussianBlur stdDeviation="200" result="effect1_foregroundBlur_11137_141"/>
</filter>
<filter id="filter1_f_11137_141" x="828.568" y="-392.789" width="1933.04" height="1418.3" filterUnits="userSpaceOnUse" color-interpolation-filters="sRGB">
<feFlood flood-opacity="0" result="BackgroundImageFix"/>
<feBlend mode="normal" in="SourceGraphic" in2="BackgroundImageFix" result="shape"/>
<feGaussianBlur stdDeviation="200" result="effect1_foregroundBlur_11137_141"/>
</filter>
<linearGradient id="paint0_linear_11137_141" x1="2880" y1="5399" x2="2880" y2="9179" gradientUnits="userSpaceOnUse">
<stop stop-color="white"/>
<stop offset="0.211538" stop-color="#F3FCF7"/>
<stop offset="0.379808" stop-color="#BFE8E0"/>
<stop offset="0.509615" stop-color="#BDE7E0"/>
<stop offset="0.677885" stop-color="#CBF1DC"/>
<stop offset="1" stop-color="white"/>
</linearGradient>
<linearGradient id="paint1_linear_11137_141" x1="960" y1="0" x2="960" y2="1704" gradientUnits="userSpaceOnUse">
<stop stop-color="#F3FCF7"/>
<stop offset="0.29491" stop-color="#BFE8E0"/>
<stop offset="0.3125" stop-color="#BDE7E0"/>
<stop offset="0.531805" stop-color="#CBF1DC"/>
<stop offset="1" stop-color="white"/>
</linearGradient>
<linearGradient id="paint2_linear_11137_141" x1="960" y1="0" x2="960" y2="846.111" gradientUnits="userSpaceOnUse">
<stop stop-color="#F3FCF7"/>
<stop offset="1" stop-color="#CBF1DC"/>
</linearGradient>
</defs>
</svg>
