<svg width="61" height="60" viewBox="0 0 61 60" fill="none" xmlns="http://www.w3.org/2000/svg">
<rect x="0.5" width="60" height="60" rx="30" fill="#D7E3FF"/>
<path d="M41.9006 24.5654C38.9478 24.7561 35.6607 24.3066 32.7467 24.5654C32.1405 24.6191 31.4408 24.9112 30.96 25.2766C30.8567 25.3553 30.5672 25.7079 30.4791 25.6928C29.8942 25.0481 29.1201 24.6774 28.2533 24.5654C25.302 24.719 22.1365 24.3573 19.2103 24.5616C17.7776 24.6615 16 26.0226 16 27.5374V35.3821H19.4116V44.5002H27.9411V35.3821H33.0589V44.5002H41.5884V35.3821H45V27.5374C45 26.1815 43.2627 24.5843 41.9006 24.5654ZM29.6473 33.6827H27.9411V27.9626H26.2357V42.8009H24.5295V33.6827H22.8233V42.8009H21.1178V27.9626H19.4116V33.6827H17.7054V27.7077C17.7054 27.6312 17.8718 27.2287 17.9227 27.1311C18.2121 26.5795 18.7728 26.3049 19.3805 26.261C22.2064 26.0575 25.2823 26.4131 28.134 26.2693C28.776 26.2837 29.6473 27.0728 29.6473 27.7077V33.6827ZM43.2946 33.6827H41.5884V27.9626H39.8822V42.8009H38.1767V33.6827H36.4705V42.8009H34.7651V27.9626H33.0589V33.6827H31.3527V27.7077C31.3527 27.6312 31.5191 27.2287 31.57 27.1311C31.8594 26.5795 32.42 26.3049 33.0278 26.261C35.8537 26.0575 38.9296 26.4131 41.7813 26.2693C42.4232 26.2837 43.2946 27.0728 43.2946 27.7077V33.6827Z" fill="#2862FF"/>
<path d="M41.3059 18.134C41.2041 16.564 39.7752 15.3776 38.2126 15.51C37.9239 15.5342 37.5509 15.7173 37.3473 15.7256C36.9576 15.743 36.5003 15.4426 35.8325 15.5183C34.3261 15.6878 33.2239 17.0898 33.3439 18.5879C33.486 20.3531 35.3904 22.0487 36.9265 22.7229C37.3769 22.9196 37.4088 22.875 37.8365 22.6677C39.4857 21.8709 41.4358 20.1322 41.3059 18.134ZM38.4617 20.2321C38.284 20.3857 37.5661 20.9214 37.3822 20.9736C37.2653 21.0061 36.868 20.7322 36.7373 20.6452C35.926 20.1057 34.6855 18.9186 35.1526 17.8419C35.275 17.5597 35.6358 17.2676 35.9442 17.2154C36.5428 17.114 36.8824 17.4727 37.3443 17.7632C37.8935 17.2699 38.6349 16.9105 39.2594 17.5112C40.1444 18.3617 39.1629 19.626 38.4617 20.2321Z" fill="#2862FF"/>
<path d="M24.8713 19.212L27.3683 21.7119L26.2067 22.9203L23.6968 20.434L21.1459 22.9203C20.9302 22.5995 20.1561 22.0781 20.0056 21.7884C19.9707 21.7218 19.9783 21.6945 20.0338 21.6453L22.4814 19.212L19.9844 16.7121L21.1459 15.5031L23.6558 17.9901L26.2067 15.5031C26.4225 15.8246 27.1973 16.3452 27.3478 16.6357C27.3819 16.7015 27.3743 16.7295 27.3189 16.778L24.8713 19.212Z" fill="#2862FF"/>
</svg>
