<svg xmlns="http://www.w3.org/2000/svg" width="150" height="150" viewBox="0 0 150 150" fill="none">
  <circle cx="75" cy="75" r="75" fill="#F3FCF7"/>
  <path d="M47.1762 70.4862L47.125 70.5125C47.1127 69.5821 47.1239 68.4454 46.6729 67.6185C45.8132 66.0432 43.8367 65.2462 42.1041 65.0717C42.1328 65.2244 42.0257 65.1696 41.9273 65.1732C40.6479 65.2147 39.3546 65.2441 38.0982 65.4926C36.826 65.7435 35.5978 66.1801 34.3922 66.6405L34.3168 66.5401C35.3072 65.955 36.4323 65.6918 37.5441 65.4262C36.9844 65.3932 34.7305 65.7659 34.1969 65.992C34.0462 66.0559 34.2199 66.0381 33.9467 66.0959C33.5208 66.1867 32.9897 66.4894 32.533 66.6247C32.3208 66.6881 32.0302 66.7043 31.8041 66.7647C30.5616 67.0968 29.2888 67.5267 28.2195 68.1585C27.9002 68.3476 27.9996 68.3861 27.811 68.5899C24.2423 72.4356 23.9973 79.0096 27.5024 82.9851C27.6485 83.0753 27.8438 83.0718 27.9832 83.1427C28.219 83.2619 28.6122 83.6868 28.8659 83.8373C29.8327 84.4108 30.6272 84.4189 31.6739 84.6592C31.8759 84.7054 32.6899 85.043 32.8339 84.9371C32.9467 84.7753 32.878 84.2845 32.9579 84.1476C33.0482 83.9925 33.6474 84.0878 33.5992 83.7948C31.9451 83.0484 30.1859 81.4914 29.4405 79.8309C28.2688 77.2218 28.2718 74.1762 29.6856 71.6553C29.7102 71.6122 29.9398 71.2188 30.0126 71.2964C30.028 71.3942 29.9408 71.4454 29.9188 71.5352C29.905 71.5925 29.9639 71.6736 29.9531 71.6939C29.9475 71.704 29.8434 71.7309 29.7783 71.8485C28.3436 74.4627 28.4225 78.2288 30.1761 80.6731C31.8333 82.983 34.4014 84.1988 37.1853 84.6552L36.9808 84.7054C37.0756 84.718 37.1617 84.7444 37.2883 84.7561C37.4457 84.6085 37.7814 84.7561 37.9286 84.7561H39.4146C39.4325 84.7561 39.4991 84.7074 39.5658 84.7033C39.7129 84.6957 40.0614 84.6511 40.0035 84.8068C40.3957 84.7829 40.8642 84.6896 41.2532 84.5989C41.4624 84.5502 41.6823 84.4371 41.8986 84.4022C41.9191 84.424 41.8058 84.8159 41.7827 84.8686C41.7535 84.9345 41.3183 85.4897 41.6971 85.3406C41.7627 85.3148 41.9442 85.149 41.9842 85.0937C42.5957 84.245 42.8735 84.2283 43.6347 83.6112C43.8669 83.4236 44.1278 83.1458 44.3062 82.9085C43.8756 83.1498 43.4927 83.4743 43.0381 83.6797C41.6305 84.3155 40.0594 84.5122 38.5426 84.5036C38.0024 84.5005 37.4672 84.4904 36.929 84.4524V84.3008C37.0469 84.2637 37.7681 84.3799 37.8004 84.351C37.8142 84.3383 37.7497 84.2065 37.7589 84.1355C37.7696 84.0554 37.8732 83.9524 37.8522 83.8455L37.9537 83.9464C37.9501 83.7349 37.8363 83.4059 37.847 83.2122C37.8553 83.0642 37.9819 82.9982 37.9921 82.9034C38.0003 82.8223 37.9378 82.7356 37.9619 82.6175C37.9901 82.4791 38.2341 82.3721 38.0054 82.2768C34.4081 82.7508 29.9982 81.0919 29.4559 77.0327C28.9131 72.9731 32.165 69.4594 35.7516 68.0834C37.5867 67.3792 41.6679 66.5218 43.0775 68.3106C43.0273 67.9516 43.6721 68.0824 43.7357 67.8203C43.7495 67.7625 43.6829 67.4801 43.6532 67.4131C43.624 67.3482 43.0673 66.7733 43.4015 66.7997C43.688 66.8225 44.1027 67.3371 44.2775 67.5556C44.8501 68.2715 45.154 68.8977 44.9183 69.8498C44.7978 70.3361 44.4713 70.2342 44.2529 70.4583C44.1663 70.547 44.0658 70.8507 43.9454 71.0033C43.7429 71.2593 43.4138 71.4444 43.0775 71.4474C43.1944 71.1853 43.4276 70.8304 43.4753 70.55C43.5235 70.2676 43.4522 70.0643 43.4364 69.8286C43.3461 70.1176 43.2944 70.3548 43.1375 70.6215C41.8483 72.8108 36.4128 72.9092 34.1405 73.5759C31.718 74.2867 30.7169 76.6266 33.0871 78.1274C33.1184 78.0249 33.2399 78.1279 33.2927 78.1517C34.4932 78.7048 35.9858 78.9462 37.2883 78.6836C37.2827 78.678 37.2996 78.605 37.2545 78.5806C37.072 78.4818 36.7516 78.4235 36.5446 78.3302C36.2514 78.1978 35.7593 77.9535 35.546 77.7223C35.4251 77.5914 35.3917 77.5595 35.5501 77.3973C36.1109 76.8228 37.8373 76.7447 38.6318 76.5952C41.1164 76.1272 44.1253 75.4047 45.7917 73.3944C45.968 73.1814 46.128 72.9477 46.2982 72.7287C46.3899 72.6105 46.2782 72.6207 46.4591 72.5609C46.4919 72.5502 46.5191 72.5872 46.5657 72.5299C46.7626 72.2855 47.127 71.2071 47.125 70.8913C47.0414 70.875 47.0471 70.7762 47.125 70.7392C47.1516 70.7265 47.2162 70.7681 47.2295 70.7133C47.2582 70.5967 47.1767 70.5085 47.1762 70.4862ZM29.4339 71.0053C28.9561 71.7167 28.6076 72.4584 28.1898 73.2144C28.0914 73.3918 27.7772 73.7295 27.73 73.9237C27.6783 74.1336 27.7608 74.2741 27.7433 74.3998C27.7382 74.4338 27.5798 74.9656 27.5532 75.0538C27.5368 75.1091 27.4122 75.1157 27.3707 75.2389C27.0842 76.0856 27.2359 76.7934 27.2482 77.6442C27.2543 78.0285 27.2277 78.4042 27.1949 78.785H26.4521C26.4137 78.785 25.8324 78.4108 25.7996 78.3809C25.6586 78.2531 25.5187 77.6923 25.4685 77.4794C25.327 76.8852 25.1753 75.822 25.1978 75.2176C25.2552 73.6758 26.2404 70.8973 27.5921 70.0298C27.7587 69.9229 28.9889 69.3226 29.1166 69.3226C29.3032 69.3226 29.8024 69.285 29.9362 69.3226C30.1848 69.392 29.9711 69.6268 29.9613 69.7043C29.9475 69.8199 30.0526 69.9447 30.0628 70.0618C30.0854 70.3163 29.5892 70.7731 29.4339 71.0053ZM30.1664 71.2452H30.0131C30.0259 71.1351 30.0459 71.0058 30.1664 71.0429V71.2452ZM30.192 70.9922V70.9414C30.2253 70.9587 30.2253 70.9754 30.192 70.9922ZM36.3974 78.4513L36.5707 78.6329C35.9479 78.5766 35.2144 78.643 34.6111 78.5193C34.364 78.4681 33.7545 78.2389 33.5295 78.1203C33.4111 78.0579 33.0666 77.8419 33.0948 77.7096C33.1712 77.343 33.5433 77.4125 33.8155 77.4834C34.2174 77.5879 34.3481 77.7197 34.65 77.924C35.0719 78.21 35.9253 78.0609 36.3974 78.4513ZM40.6171 72.6866C38.7359 73.3472 34.2615 73.3918 33.0579 74.7841C32.7862 75.099 32.4356 75.7839 32.3726 76.1814C32.3449 76.3553 32.4233 76.5987 32.3213 76.7381C32.127 77.0033 32.045 76.4512 32.0066 76.3447C31.9902 76.3001 31.9107 76.3041 31.9066 76.2727C31.902 76.2357 31.9589 75.6024 31.9717 75.533C32.2091 74.2644 33.8801 73.7757 34.9806 73.546C36.5753 73.2134 38.2376 73.081 39.8405 72.7287C40.2911 72.6298 40.7237 72.4453 41.1815 72.4098L40.6171 72.6866Z" fill="#13316B"/>
  <path d="M103.917 74.737C103.212 72.2303 100.295 71.5666 98.5887 73.5216C98.5021 73.621 98.4575 73.7604 98.3591 73.8259L98.7174 68.6645H96.6424C96.6132 68.6645 96.5635 68.7496 96.5655 68.7912C96.5066 69.9725 96.444 71.1534 96.36 72.3327C96.2339 74.0961 96.0129 75.8818 95.9509 77.6467C95.8889 79.4294 95.9432 80.9834 98.0407 81.4011C102.128 82.2159 104.974 78.498 103.917 74.737ZM99.5621 79.8979C98.0084 80.0479 97.948 78.8194 97.9977 77.6442C98.0541 76.3244 98.5487 74.1341 100.245 74.091C102.875 74.0241 102.23 79.6398 99.5621 79.8979Z" fill="#13316B"/>
  <path d="M52.5047 71.0429L52.2996 74.1803H56.6546L56.5521 75.9513H52.2227L51.9408 79.544H56.8084L56.7059 81.315H49.6869L50.5578 69.2719H57.2692L57.1667 71.0429H52.5047Z" fill="#13316B"/>
  <path d="M82.3206 72.8169C79.6172 71.996 76.3704 72.2784 74.8337 74.9053C73.3389 77.4601 74.0842 82.3417 77.9272 81.4017C78.9293 81.1563 79.6151 80.235 79.9914 79.3412L80.1195 81.315H82.0663C81.9346 80.3349 81.8669 79.3437 81.8592 78.353L82.3206 72.8169ZM79.914 76.6844C79.8135 77.6538 79.2184 79.5257 78.1219 79.7721C76.3284 80.1757 76.1177 78.032 76.352 76.8096C76.5806 75.6176 77.515 74.2051 78.8262 74.0413C79.0251 74.0165 80.058 73.9866 80.1159 74.1615L79.914 76.6844Z" fill="#13316B"/>
  <path d="M113.318 73.294C113.326 73.0932 113.386 72.8499 113.196 72.7586C112.788 72.5644 111.473 72.4224 110.99 72.4067C107.554 72.2932 105.037 74.4764 105.12 77.9524C105.197 81.212 108.37 82.8872 110.573 80.197L111.064 79.3417L111.116 81.1887C111.114 81.2298 111.164 81.315 111.193 81.315H113.114C112.982 80.3313 112.881 79.2986 112.907 78.3023C112.95 76.6342 113.253 74.96 113.318 73.294ZM111.065 74.9144C110.955 76.3518 110.982 78.1289 109.939 79.2666C109.388 79.8679 108.427 80.0692 107.836 79.4187C106.481 77.9296 107.743 74.3354 109.822 74.0403C110.053 74.0079 110.443 74.0094 110.68 74.0292C110.785 74.0378 111.139 74.0768 111.164 74.161C111.182 74.2223 111.075 74.7821 111.065 74.9144Z" fill="#13316B"/>
  <path d="M42.1662 79.407C41.3911 79.1804 40.1543 78.9801 39.3167 79.0932C39.187 79.111 38.9799 79.1434 39.0814 79.2909C39.1516 79.2357 39.2126 79.188 39.3095 79.187C39.6699 79.1835 40.6602 79.3452 40.977 79.4932C41.3414 79.5444 41.9145 79.7386 42.0529 80.1006C42.218 80.5326 41.9529 80.85 41.6177 81.1152C41.5495 81.1694 41.4537 81.1527 41.4383 81.1633C40.4618 81.8265 39.2064 82.1181 38.0054 82.2768C38.2341 82.3721 37.9901 82.4791 37.9619 82.6175C37.9378 82.7356 38.0003 82.8223 37.9921 82.9034C37.9819 82.9982 37.8553 83.0642 37.847 83.2122C37.8363 83.4059 37.9501 83.7349 37.9537 83.9464L37.8522 83.8455C37.8732 83.9524 37.7696 84.0554 37.7589 84.1355C37.7497 84.2065 37.8142 84.3383 37.8004 84.351C37.7681 84.3799 37.0469 84.2637 36.929 84.3008V84.4524C37.4672 84.4904 38.0024 84.5005 38.5426 84.5036C40.0594 84.5122 41.6305 84.3155 43.0381 83.6797C43.4927 83.4743 43.8756 83.1498 44.3062 82.9085C44.1278 83.1458 43.8669 83.4236 43.6347 83.6112C42.8735 84.2283 42.5957 84.245 41.9842 85.0937C41.9442 85.149 41.7627 85.3148 41.6971 85.3406C41.3183 85.4897 41.7535 84.9345 41.7827 84.8686C41.8058 84.8159 41.9191 84.424 41.8986 84.4022C41.6823 84.4371 41.4624 84.5502 41.2532 84.5989C40.8642 84.6896 40.3957 84.7829 40.0035 84.8068C39.8011 84.8189 39.5919 84.8027 39.389 84.8067C39.0906 84.8965 38.7067 84.8615 38.3889 84.858C38.3023 84.8574 38.1613 84.8904 38.108 84.8067C37.8086 84.7986 37.5779 84.7834 37.2883 84.7561C37.1617 84.7444 37.0756 84.718 36.9808 84.7054C36.5328 84.646 36.1361 84.5999 35.6891 84.4888C35.034 84.3256 34.1907 84.0614 33.5992 83.7948C33.6474 84.0878 33.0482 83.9925 32.9579 84.1476C32.878 84.2845 32.9467 84.7753 32.8339 84.9371C32.6899 85.043 31.8759 84.7054 31.6739 84.6592C30.6272 84.4189 29.8327 84.4108 28.8659 83.8373C28.6122 83.6868 28.219 83.2619 27.9832 83.1427C27.8438 83.0718 27.6485 83.0753 27.5024 82.9851C31.1746 87.1497 39.2429 88.0141 43.4882 84.2252C45.7851 82.1753 44.9178 80.2112 42.1662 79.407ZM44.3083 82.8081L44.3847 82.7331C44.4365 82.7782 44.3073 82.8613 44.3083 82.8081Z" fill="#13316B"/>
  <path d="M73.1047 74.0074C71.5618 75.8803 70.123 77.8424 68.4381 79.5947H72.8443L72.7418 81.3149H65.7485C65.7306 81.3149 65.6619 81.2414 65.6814 81.2009L65.7767 80.1285C67.0541 78.5172 68.2853 76.7604 69.6929 75.2419C69.9364 74.9793 70.3049 74.7025 70.5136 74.4338C70.553 74.3825 70.6125 74.3699 70.5899 74.2811H66.5425L66.645 72.6115H73.2544C73.1903 73.076 73.2354 73.5536 73.1047 74.0074Z" fill="#13316B"/>
  <path d="M120.609 79.5338C120.093 81.6257 117.083 81.7804 115.393 81.1644C115.228 81.104 114.746 80.9245 114.762 80.7471C114.782 80.5367 114.981 79.7178 115.061 79.5191C115.081 79.4704 115.083 79.4192 115.139 79.3923C115.823 79.6854 116.682 80.0175 117.443 79.948C118.752 79.8289 118.822 78.5542 117.843 77.884C116.87 77.2173 115.53 76.8694 115.228 75.5081C114.622 72.7819 117.931 71.9747 119.991 72.6257C120.063 72.6486 120.469 72.7996 120.483 72.8219C120.596 73.0035 120.186 74.0575 120.184 74.3318C119.376 73.913 117.018 73.5673 117.276 75.0538C117.4 75.7662 119.015 76.3518 119.594 76.8127C120.459 77.5022 120.882 78.4275 120.609 79.5338Z" fill="#13316B"/>
  <path d="M64.4404 79.4436C64.4527 79.6738 64.7587 80.8957 64.69 81.0037C61.8698 82.2215 58.4702 81.1745 58.2406 77.8003C57.9761 73.9146 61.3182 71.5377 65.0007 72.7175C65.0827 72.8113 64.7003 74.1032 64.6977 74.3324C64.4096 74.2786 64.1462 74.1696 63.8519 74.1306C62.5751 73.9592 61.5053 74.416 60.8656 75.5309C60.3294 76.4664 60.2136 78.1299 60.9081 79.0116C61.7965 80.1392 63.2461 79.875 64.4404 79.4436Z" fill="#13316B"/>
  <path d="M85.9867 75.9016C85.5171 77.057 85.5874 78.8661 86.8037 79.5455C87.6921 80.0418 88.8469 79.763 89.7511 79.4425L90.0013 81.0052C88.1903 81.7657 85.8026 81.7337 84.4479 80.1519C83.4217 78.9528 83.3012 77.0139 83.8076 75.571C84.7457 72.8965 87.6813 71.8257 90.3109 72.7165L90.0074 74.3324C89.7352 74.2964 89.479 74.1762 89.2083 74.1346C87.7648 73.9131 86.5336 74.5554 85.9867 75.9016Z" fill="#13316B"/>
  <path d="M47.1762 70.4862L47.125 70.5125C47.1127 69.5821 47.1239 68.4454 46.6729 67.6185C45.8132 66.0432 43.8367 65.2462 42.1041 65.0717C41.8791 65.0489 41.6193 65.0814 41.3871 65.0717C41.3871 65.0717 41.3866 65.0717 41.3861 65.0712L41.385 65.0697C41.3804 65.0601 41.3676 65.0221 41.3358 65.021C41.2333 65.0185 41.1308 65.0226 41.0283 65.021C40.977 65.0205 40.9258 65.02 40.8745 65.021C40.4752 65.0287 39.9585 65.0383 39.5684 65.0723C39.1455 65.1093 38.0276 65.4018 37.7492 65.3754C37.7221 65.3729 37.6272 65.2264 37.6467 65.4261C37.6129 65.4241 37.5785 65.4282 37.5441 65.4262C36.9844 65.3932 34.7305 65.7659 34.1969 65.992C34.0462 66.0559 34.2199 66.0381 33.9467 66.0959C33.5208 66.1867 32.9897 66.4894 32.533 66.6247C32.3208 66.6881 32.0302 66.7043 31.8041 66.7647C30.5616 67.0968 29.2888 67.5267 28.2195 68.1585C28.422 67.8279 28.8127 67.5024 29.1177 67.2489C31.4013 65.3521 34.2518 64.1464 37.2187 63.7631C41.6629 63.1892 46.7298 64.5303 47.2793 69.5497C47.3209 69.933 47.1716 70.188 47.1762 70.4862Z" fill="#13316B"/>
  <path d="M94.2599 72.6115L93.6453 81.3149H91.5447L92.1849 72.6115H94.2599Z" fill="#13316B"/>
  <path d="M125 72.6115L124.385 81.3149H122.285L122.899 72.6115H125Z" fill="#13316B"/>
  <path d="M44.9183 69.8498C44.7978 70.3361 44.4713 70.2342 44.2529 70.4583C44.1663 70.547 44.0658 70.8507 43.9454 71.0033C43.7429 71.2593 43.4138 71.4444 43.0775 71.4474C43.1944 71.1853 43.4276 70.8304 43.4753 70.55C43.5235 70.2676 43.4522 70.0643 43.4364 69.8286C43.4328 69.7784 43.4394 69.7266 43.4364 69.6765C43.5763 69.5609 43.4507 69.3692 43.4364 69.2719C43.3774 68.8865 43.3302 68.631 43.0775 68.3106C43.0273 67.9516 43.6721 68.0824 43.7357 67.8203C43.7495 67.7625 43.6829 67.4801 43.6532 67.4131C43.624 67.3482 43.0673 66.7733 43.4015 66.7997C43.688 66.8225 44.1027 67.3371 44.2775 67.5556C44.8501 68.2715 45.154 68.8977 44.9183 69.8498Z" fill="#13316B"/>
  <path d="M46.3679 72.7996C44.8035 75.4067 41.3194 76.3873 38.476 76.8968C37.9122 76.9977 35.9761 77.1625 35.646 77.4916C35.5742 77.563 35.5327 77.6153 35.546 77.7223C35.4251 77.5914 35.3917 77.5595 35.5501 77.3973C36.1109 76.8228 37.8373 76.7447 38.6318 76.5952C41.1164 76.1272 44.1253 75.4047 45.7917 73.3944C45.968 73.1814 46.128 72.9477 46.2982 72.7287C46.3899 72.6105 46.2782 72.6207 46.4591 72.5609C46.4755 72.6663 46.4151 72.7216 46.3679 72.7996Z" fill="#13316B"/>
  <path d="M41.6177 81.1152C41.5495 81.1694 41.4537 81.1527 41.4383 81.1633C41.486 80.666 41.0379 80.3217 40.6525 80.092C40.3382 79.9049 39.2172 79.4887 39.0814 79.2909C39.1516 79.2357 39.2126 79.188 39.3095 79.187C39.6699 79.1835 40.6602 79.3452 40.977 79.4932C41.3455 79.6656 41.6638 79.9734 42.0529 80.1006C42.218 80.5326 41.9529 80.85 41.6177 81.1152Z" fill="#13316B"/>
  <path d="M118.442 82.0238V83.1367H116.751V82.0993C116.751 82.0942 116.823 82.0238 116.828 82.0238H118.442Z" fill="#13316B"/>
  <path d="M37.3017 78.8235C37.2012 78.8722 36.582 78.936 36.4411 78.9376C35.3892 78.9497 33.9708 78.6866 33.0871 78.1274C33.1184 78.0249 33.2399 78.1279 33.2927 78.1517C34.4932 78.7048 35.9858 78.9462 37.2883 78.6836C37.2965 78.6922 37.3607 78.6759 37.3894 78.6851C37.4088 78.7697 37.3694 78.79 37.3017 78.8235Z" fill="#13316B"/>
  <path d="M43.4364 69.6765C43.4266 69.5431 43.4425 69.4057 43.4364 69.2719C43.4507 69.3692 43.5763 69.5609 43.4364 69.6765Z" fill="#13316B"/>
  <path d="M47.125 70.7392C47.125 70.7899 47.1245 70.8406 47.125 70.8913C47.0414 70.875 47.0471 70.7762 47.125 70.7392Z" fill="#13316B"/>
  <path d="M29.9363 69.322C30.1849 69.392 29.9711 69.6268 29.9619 69.7038C29.9475 69.8194 30.0526 69.9441 30.0634 70.0613C30.0859 70.3158 29.5903 70.7726 29.4344 71.0043C28.9567 71.7157 28.6086 72.4574 28.1904 73.2139C28.0925 73.3913 27.7777 73.729 27.7306 73.9227C27.6793 74.1326 27.7618 74.273 27.7439 74.3988C27.7393 74.4327 27.5804 74.9641 27.5542 75.0528C27.5378 75.1081 27.4133 75.1147 27.3718 75.2384C27.0852 76.0851 27.2369 76.7929 27.2492 77.6437C27.2549 78.028 27.2282 78.4032 27.1959 78.7844H26.4532C26.4147 78.7844 25.8335 78.4103 25.8007 78.3804C25.6597 78.2526 25.5198 77.6918 25.4695 77.4789C25.3286 76.8847 25.1763 75.8215 25.1989 75.2171C25.2563 73.6748 26.2415 70.8968 27.5932 70.0293C27.7603 69.9223 28.99 69.322 29.1176 69.322C29.3047 69.322 29.8035 69.2845 29.9373 69.322H29.9363Z" fill="#13316B"/>
  <path d="M33.5992 83.7943C31.9451 83.0484 30.1859 81.4914 29.4405 79.8309C28.2688 77.2213 28.2723 74.1757 29.6856 71.6553C29.7102 71.6117 29.9399 71.2188 30.0126 71.2959C30.028 71.3942 29.9409 71.4454 29.9188 71.5347C29.905 71.5925 29.9634 71.6731 29.9532 71.6934C29.9481 71.7035 29.8434 71.7304 29.7783 71.8485C28.3436 74.4627 28.4225 78.2288 30.1761 80.6731C31.8333 82.9825 34.4014 84.1988 37.1853 84.6552L36.9808 84.7054C36.5328 84.646 36.1361 84.5999 35.6891 84.4884C35.034 84.3256 34.1908 84.0609 33.5998 83.7943H33.5992Z" fill="#13316B"/>
  <path d="M41.1815 72.4098L40.6171 72.6866C38.7359 73.3477 34.2615 73.3918 33.0579 74.7841C32.7857 75.099 32.4357 75.7839 32.3721 76.1814C32.3444 76.3553 32.4229 76.5987 32.3209 76.7381C32.1266 77.0033 32.0451 76.4512 32.0061 76.3447C31.9897 76.3001 31.9103 76.3041 31.9062 76.2727C31.9016 76.2357 31.9579 75.6024 31.9713 75.533C32.2086 74.2644 33.8797 73.7756 34.9802 73.546C36.5744 73.2134 38.2372 73.0815 39.8396 72.7287C40.2901 72.6298 40.7228 72.4452 41.1805 72.4097L41.1815 72.4098Z" fill="#13316B"/>
  <path d="M36.3974 78.4513L36.5702 78.6328C35.9474 78.5761 35.2139 78.643 34.6111 78.5193C34.3635 78.4686 33.754 78.2394 33.529 78.1203C33.4111 78.0579 33.0667 77.8419 33.0943 77.7096C33.1712 77.343 33.5433 77.413 33.8155 77.4834C34.2174 77.5879 34.3481 77.7197 34.6501 77.9245C35.0719 78.2105 35.9254 78.0609 36.3975 78.4518L36.3974 78.4513Z" fill="#13316B"/>
  <path d="M40.8745 65.021C40.8817 65.0971 41.0211 65.0971 41.0283 65.021C41.1308 65.0226 41.2333 65.0185 41.3358 65.021L41.3871 65.0717C41.6193 65.0814 41.8791 65.0489 42.1041 65.0717C42.1328 65.2244 42.0257 65.1696 41.9273 65.1732C40.6484 65.2147 39.3546 65.2441 38.0982 65.4926C36.8265 65.7441 35.5978 66.1801 34.3922 66.6405L34.3169 66.5406C35.3072 65.955 36.4323 65.6923 37.5441 65.4262C37.5779 65.4282 37.6129 65.4246 37.6467 65.4261C37.6877 65.4282 37.7364 65.4206 37.7492 65.3754C38.027 65.4018 39.1455 65.1093 39.5684 65.0723C39.9585 65.0383 40.4747 65.0287 40.8745 65.021Z" fill="#13316B"/>
  <path d="M37.2883 84.7561C37.4462 84.6085 37.7814 84.7561 37.9286 84.7561H39.4146C39.433 84.7561 39.4997 84.7074 39.5663 84.7038C39.7129 84.6957 40.062 84.6511 40.0041 84.8068C39.8016 84.8189 39.5925 84.8027 39.3895 84.8068C38.9656 84.8149 38.5324 84.8179 38.1085 84.8068C37.8092 84.7986 37.5785 84.7834 37.2889 84.7561L37.2883 84.7561Z" fill="#13316B"/>
  <path d="M30.1664 71.0429L30.1664 71.2446H30.0132C30.026 71.1346 30.0454 71.0053 30.1664 71.0429Z" fill="#13316B"/>
  <path d="M30.192 70.9414C30.2253 70.9582 30.2253 70.9754 30.192 70.9922V70.9414Z" fill="#13316B"/>
  <path d="M40.977 79.4932C41.3455 79.6656 41.6638 79.9734 42.0529 80.1006C41.9145 79.7386 41.3414 79.5444 40.977 79.4932Z" fill="#13316B"/>
  <path d="M39.3885 84.8068C39.0902 84.8965 38.7062 84.8615 38.3889 84.8585C38.3023 84.8575 38.1613 84.8909 38.108 84.8067C38.5314 84.8179 38.965 84.8149 39.389 84.8067L39.3885 84.8068Z" fill="#13316B"/>
  <path d="M44.3847 82.7331C44.4365 82.7782 44.3073 82.8613 44.3084 82.8086L44.3847 82.7331Z" fill="#13316B"/>
  <path d="M37.7492 65.3754C37.7364 65.4206 37.6882 65.4282 37.6467 65.4261C37.6272 65.2264 37.7215 65.3729 37.7492 65.3754Z" fill="#13316B"/>
  <path d="M40.8745 65.021C40.8817 65.0971 41.0211 65.0971 41.0283 65.021C40.977 65.02 40.9258 65.02 40.8745 65.021Z" fill="#13316B"/>
  <path d="M41.3358 65.021L41.3871 65.0717C41.3835 65.0717 41.3722 65.0221 41.3358 65.021Z" fill="#13316B"/>
</svg>