<svg xmlns="http://www.w3.org/2000/svg" width="150" height="150" viewBox="0 0 150 150" fill="none">
  <circle cx="75" cy="75" r="75" fill="#F3FCF7"/>
  <path d="M125.982 72.6696C125.943 70.6313 125.845 68.8171 125.657 67.8112C125.198 65.3333 122.901 63.4749 120.455 63.0531L31.6943 63C28.7979 63.3717 26.9396 65.1888 26 67.823V82.9557C26.868 85.6254 28.9828 87.8377 32.0254 87.7817H119.957C123.119 87.7522 125.499 85.2389 125.767 82.1947C125.866 81.059 125.946 79.0944 125.982 76.9469C126.006 75.5398 126.006 74.0531 125.982 72.6696ZM123.736 82.8319C123.259 84.8673 121.424 85.8761 119.405 86.0354L31.7479 85.9705C29.7196 85.6165 28.1864 84.2655 27.9985 82.1976C27.5988 77.7375 28.3057 72.6903 28.0224 68.1652C28.4549 66.5782 29.4959 65.5339 31.0708 65.0206L120.5 64.9852C122.054 65.4395 123.5 66.5015 123.73 68.1711C124.345 72.6018 123.324 78.2655 123.736 82.8319Z" fill="#13316B"/>
  <path d="M125.982 76.9469V72.6696C126.006 74.0531 126.006 75.5398 125.982 76.9469Z" fill="#13316B"/>
  <path d="M120.628 78.0206C120.592 77.4454 120.207 76.938 120.207 76.4867C120.207 75.8967 120.744 74.705 120.762 73.8171C120.81 71.6549 120.067 69.6519 117.884 68.8731C117.669 68.7964 116.598 68.4808 116.497 68.4808H84.9173V71.9882H82.2387V68.4808H70.6354C69.9106 69.9675 69.1201 71.4395 68.2879 72.8731C68.1567 73.0973 68.2969 73.4248 67.8465 73.3068C67.4796 73.2124 65.7555 69.0147 65.1678 68.4808H46.0866C46.0418 68.4808 46.1403 69.2979 46.0836 69.3569C44.9292 68.9056 44.1388 68.5634 42.8591 68.472C40.5415 68.3009 35.3662 68.1976 33.4303 69.3127C30.0925 71.2301 29.9852 78.9911 32.8129 81.1947C34.9695 82.8761 41.4572 82.7787 44.1328 82.2419C44.4967 82.1681 45.9822 81.5369 46.0836 81.6401C46.1552 81.7079 46.0239 82.236 46.0866 82.2979H61.484V76.8141L64.6071 82.1888C65.7256 82.236 70.6265 82.5811 71.1962 82.0826L74.874 75.7168V82.2979H82.2387V78.5693H84.9173V82.2979H111.253L111.381 79.882H113.263V82.2979H120.628C120.562 80.882 120.717 79.4366 120.628 78.0206ZM42.4117 80.5516C40.6071 80.6902 35.9658 80.7669 34.4684 80.0088C32.3625 78.941 32.443 73.2242 33.7137 71.5634C34.8412 70.0885 39.4885 70.1239 41.2842 70.236C44.3774 70.4307 45.8092 70.7433 45.8629 74.1829H42.5161C42.4684 74.1829 42.5937 73.5428 42.4177 73.295C42.0985 72.8525 37.1619 73.0826 36.267 73.3068V76.9233C36.267 78.0973 40.4072 78.0147 41.2901 77.9144C42.8412 77.7374 42.1999 77.1799 42.6205 76.59C42.9546 76.1239 45.1738 76.4897 45.8629 76.3746C46.1373 79.3717 45.4124 80.3186 42.4117 80.5516ZM40.7294 74.8407V75.938C37.0992 76.3569 37.0903 74.4248 40.7294 74.8407ZM59.4766 72.8672H51.4408V74.1829H58.6951C59.1872 74.1829 59.1872 76.5959 58.6951 76.5959H51.4408V77.9115H59.4766V80.5428H48.2044C48.1835 80.5428 47.8703 80.2389 47.8703 80.2153V70.4543H59.4766V72.8672ZM69.6391 80.5605C69.1977 80.6135 65.9255 80.6076 65.7614 80.5074L60.5922 70.4543H64.1626L67.7361 77.472L71.751 70.4543H75.5452C74.7368 71.5516 70.2297 80.4897 69.6391 80.5605ZM90.2745 80.2153C90.2745 80.7109 86.704 80.7109 86.704 80.2153V76.8141H80.2312V80.5428H76.8845V70.4543H80.2312V73.9646H86.704V70.4543H90.2745V80.2153ZM103.888 72.8672H95.8524V74.1829H103.107C103.62 74.1829 103.411 76.1563 103.441 76.5959H95.8524V77.9115H103.888V80.5428H92.5057V70.4543H103.888V72.8672ZM118.618 80.5428H115.271C115.128 80.5428 115.59 77.9115 114.713 77.9115H109.242V80.5428H105.896V70.4543H116.72C119.217 70.8908 119.745 75.5752 117.278 76.3776C119.089 77.469 118.591 78.6961 118.618 80.5428Z" fill="#13316B"/>
  <path d="M114.934 75.2802H109.242V73.0855H114.934C115.587 73.0855 115.587 75.2802 114.934 75.2802Z" fill="#13316B"/>
</svg>