<svg xmlns="http://www.w3.org/2000/svg" width="150" height="150" viewBox="0 0 150 150" fill="none">
  <circle cx="75" cy="75" r="75" fill="#F3FCF7"/>
  <path d="M95.3745 75.1728V84.4036L95.1203 84.528L90.7805 84.4629V77.3031C90.7805 77.0566 90.4573 75.995 90.2975 75.7628C89.7467 74.9595 88.0314 75.0223 87.3886 75.6408C87.1961 75.8256 86.7894 76.9441 86.7894 77.1846V84.4036L86.6127 84.5363L82.1954 84.5813V77.0661C82.1954 76.9844 81.6652 75.7225 81.5357 75.5804C80.5854 74.5377 78.904 74.924 78.421 76.2119C78.3786 76.3244 78.2043 76.8955 78.2043 76.9476V84.4036L78.0275 84.5363L73.6091 84.5813V71.9181C73.6987 71.8861 73.7543 72.0354 73.7907 72.0354C75.161 72.0354 76.5325 72.0449 77.9028 72.0354C77.9319 72.0354 77.9743 71.9406 78.0227 71.9442L78.1897 72.1089C78.237 72.4584 78.1873 72.8126 78.2043 73.1622C78.2115 73.2961 78.1256 73.4868 78.3241 73.4548C78.8459 72.4335 80.3844 71.6468 81.526 71.5579C83.5004 71.4063 84.7012 71.7807 86.0679 73.1574C86.2095 73.2996 86.58 73.9619 86.7882 73.8114C87.9285 71.2748 92.5939 70.7049 94.3504 72.8612C94.8988 73.5354 94.9884 74.11 95.1627 74.9062C95.1929 75.0436 95.3745 75.155 95.3745 75.1728Z" fill="#13316B"/>
  <path d="M44.831 66L36.8318 84.3953L36.6127 84.5411L33.0331 84.5422L25 66H30.4414L34.7957 77.1253L39.5712 66H44.831Z" fill="#13316B"/>
  <path d="M43.7379 78.8457C43.882 80.8587 44.8807 82.3053 46.481 83.4392C50.851 86.5386 58.8079 84.8704 59.2255 78.8457C59.9046 69.0296 43.0406 69.1468 43.7379 78.8457ZM51.7892 81.034C47.7278 81.2923 47.6625 75.8967 50.9709 75.5022C52.8811 75.2735 54.3882 76.2806 54.3906 78.2497C54.3943 79.8705 53.4646 80.9274 51.7892 81.034Z" fill="#13316B"/>
  <path d="M108.709 72.1823C102.868 69.8021 96.3914 73.5958 97.9941 80.1833C98.9831 84.246 104.124 85.6524 107.833 84.7271C109.865 84.2212 111.97 82.8492 112.304 80.675H107.769C107.682 80.675 107.033 81.5542 106.386 81.688C104.325 82.1122 102.563 81.1798 102.509 79.0187H112.546C112.639 76.0685 111.632 73.3742 108.709 72.1823ZM102.63 76.4145C103.329 73.8766 107.485 73.7818 108.072 76.4145H102.63Z" fill="#13316B"/>
  <path d="M67.8712 84.4676C64.9768 85.5292 62.1792 84.8242 59.4616 83.6323L61.045 80.4475C62.4734 80.8978 64.0084 81.9961 65.6341 81.5684C66.4173 81.3622 66.6873 80.4061 65.9149 79.9819C64.8 79.3682 62.9237 79.4914 61.6466 78.5969C60.0947 77.5104 60.2375 74.732 61.3924 73.3932C63.5181 70.9324 67.8978 71.3079 70.7075 72.2736C70.8261 72.4003 69.3759 74.8529 69.1386 75.1799C68.3941 74.7332 65.2116 74.1005 65.1438 75.4204C65.0906 76.463 67.8264 76.5744 68.6144 76.8659C69.7717 77.2924 70.8527 78.2071 71.0392 79.4642C71.4132 81.9925 70.2136 83.6074 67.8712 84.4676Z" fill="#13316B"/>
  <path d="M125 71.6811V76.0602C123.076 75.3067 120.672 75.5282 120.004 77.7379C119.965 77.8647 119.801 78.5436 119.801 78.604V84.5813C118.255 84.3266 116.641 84.4771 115.084 84.5813V71.9181C115.174 71.8861 115.23 72.0354 115.266 72.0354H119.498C119.536 72.0354 119.67 71.8731 119.801 71.9181V73.9299C120.421 73.2913 120.77 72.7096 121.617 72.334C122.649 71.8743 123.895 71.7345 125 71.6811Z" fill="#13316B"/>
</svg>