<svg xmlns="http://www.w3.org/2000/svg" width="150" height="150" viewBox="0 0 150 150" fill="none">
  <circle cx="75" cy="75" r="75" fill="#F3FCF7"/>
  <path d="M92.0871 43V79.6538H82.104L66.9077 59.967V55.5206L83.094 76.5701H89.209V45.9036H82.9137C82.8668 46.0364 83.094 46.1201 83.094 46.1747V54.7947C82.7748 54.8565 82.6522 54.6309 82.4629 54.4344C81.6117 53.5557 80.9337 52.153 80.0356 51.2561V43H92.0871Z" fill="#13316B"/>
  <path d="M83.0941 61.9628V66.2254L82.5585 65.9507L67.1764 45.9036H60.7909V76.5701H66.9077V66.9513C67.3279 66.8422 67.2089 67.0514 67.3189 67.1824C68.1718 68.1848 68.8354 69.3838 69.784 70.3098V79.6538H57.9147V43H68.6154L83.0941 61.9628Z" fill="#13316B"/>
  <path d="M100 85.4611V97.2558H96.5828V90.7226L93.528 95.078L90.6481 90.7226V97.2558H87.5897V85.4611H90.9186C91.1693 85.5393 92.9762 88.9833 93.3765 89.5127C93.4919 89.6674 93.5406 89.873 93.7931 89.8166L96.4926 85.4611H100Z" fill="#13316B"/>
  <path d="M61.1516 85.4611V97.2558H58.3637C57.9579 97.2558 54.1025 91.4248 53.2369 90.9045V97.2558H50V85.4611H53.1486L57.9147 91.4485V85.4611H61.1516Z" fill="#13316B"/>
  <path d="M83.635 93.1714C87.3282 91.4485 86.569 86.0142 82.4647 85.4611C80.4216 85.1846 77.8248 85.6649 75.7204 85.4611V97.2558H78.9573V93.6262C79.3288 93.6935 80.0825 93.5007 80.3603 93.6644C80.5712 93.7881 82.2772 96.7627 82.5549 97.2558H86.331L83.635 93.1714ZM81.5649 91.0864H78.9573V88.3629H81.7452C82.9119 88.3629 83.1265 91.0864 81.5649 91.0864Z" fill="#13316B"/>
  <path d="M65.2974 89.1889C64.7636 89.6892 64.7384 92.9367 65.2361 93.4552C65.5625 93.7954 68.4622 95.3837 69.0158 95.582C70.1122 95.9695 71.1563 95.9913 72.3014 96.075C68.9671 98.9914 62.7944 96.9665 62.2498 92.4255C61.5321 86.4344 67.4577 83.5035 72.3014 86.3708C72.5556 86.6309 72.287 86.7001 72.0363 86.731C71.4827 86.8001 70.8876 86.691 70.2799 86.7783C69.2863 86.9202 66.0223 88.5139 65.2974 89.1889Z" fill="#13316B"/>
  <path d="M91.548 100.158V107.688C91.548 107.986 90.5994 108.093 90.365 107.791L86.331 102.699V107.688C86.01 108.095 85.24 108.112 84.892 107.688V100.158C85.2094 100.181 85.5718 100.101 85.8766 100.163C86.5943 100.307 89.1315 104.164 89.8763 105.006C89.9845 105.128 89.8637 105.354 90.2875 105.239V100.158H91.548Z" fill="#13316B"/>
  <path d="M78.3605 100.669C78.1819 100.574 77.3308 100.158 77.2478 100.158H73.3816V107.688L73.652 107.961H76.5283C76.6942 107.961 77.8104 107.606 78.0557 107.504C80.941 106.316 81.1033 102.137 78.3605 100.669ZM74.8206 106.691V101.429C76.7609 101.198 78.9519 101.682 78.9213 104.062C78.8924 106.369 76.7014 106.862 74.8206 106.691Z" fill="#13316B"/>
  <path d="M61.1101 100.023C56.0176 100.631 56.5532 108.747 62.3057 107.944C67.1854 107.264 66.3379 99.3971 61.1101 100.023ZM62.129 106.678C58.4881 107.247 57.9093 101.759 61.2886 101.282C64.4769 100.833 65.1856 106.2 62.129 106.678Z" fill="#13316B"/>
  <path d="M99.9999 103.605V106.873C99.0189 107.297 98.3427 107.871 97.221 107.968C91.3351 108.474 91.4415 100.261 96.4997 99.9738C97.1669 99.9356 99.6789 100.401 99.4391 101.304C98.7178 102.65 97.9676 101.309 96.8279 101.258C93.2646 101.098 93.1492 107.704 97.6737 106.613C98.7935 106.341 98.5735 105.677 98.5627 104.693H96.5827V103.605H99.9999Z" fill="#13316B"/>
  <path d="M56.4756 100.158V107.688C56.1528 108.095 55.3846 108.112 55.0366 107.688V104.695H51.439V107.961H50V100.158H51.439V103.152L51.7095 103.425H55.0366V100.158H56.4756Z" fill="#13316B"/>
  <path d="M73.2156 95.1817C72.4636 95.7857 70.0238 95.3818 69.0662 95.0762L71.6738 93.2642C71.8361 92.9312 71.8235 90.5861 71.7748 90.0767C71.6305 88.5958 69.921 88.6303 69.0662 87.6406C70.1049 87.2895 72.222 86.8165 73.1994 87.3677C73.7097 87.6552 74.5555 90.0094 74.6204 90.6498C74.7502 91.927 74.2543 94.3485 73.2156 95.1817Z" fill="#13316B"/>
  <path d="M72.0326 107.961H67.1763L66.9077 107.688V100.158H68.3449V106.691H72.3031C72.2905 107.131 72.4384 107.668 72.0326 107.961Z" fill="#13316B"/>
  <path d="M83.0941 103.152V107.961L81.9454 107.939L81.6965 107.69C81.6893 107.615 81.8354 107.551 81.8354 107.508V101.882C81.8354 101.808 81.3719 101.564 81.9219 101.611C82.1221 101.844 83.0941 102.99 83.0941 103.152Z" fill="#13316B"/>
  <path d="M83.0941 100.158L83.0039 101.791L81.8354 100.159L83.0941 100.158Z" fill="#13316B"/>
</svg>