<svg xmlns="http://www.w3.org/2000/svg" width="150" height="150" viewBox="0 0 150 150" fill="none">
  <circle cx="75" cy="75" r="75" fill="#F3FCF7"/>
  <path d="M66.2681 77.2705V89.9263L63.3181 86.4589C60.0377 84.0214 55.5049 84.8882 52.9411 87.8701C51.2887 92.0483 51.3826 88.5497 49.3963 86.8577C48.544 86.1365 46.7107 85.2523 45.6045 85.1032C39.0053 84.226 37.9269 91.6773 30.0476 89.5587C28.7883 89.2224 25 86.8715 25 85.5921V72.9363C27.1499 75.0306 29.5989 76.8405 32.7993 76.7781C38.8732 76.6602 40.4142 69.5661 47.5387 72.4197C49.9285 73.3767 50.0086 74.7185 51.327 76.1852C51.6018 76.4938 51.5914 76.4799 52.0436 76.4037C53.783 71.3968 60.6743 70.4329 64.3583 73.98C64.8418 74.4446 66.2681 76.7469 66.2681 77.2705Z" fill="#13316B"/>
  <path d="M31.0983 75.3322C23.1703 74.2192 22.8885 61.6917 30.8026 60.1904C42.8669 57.8985 43.6044 77.0902 31.0983 75.3322Z" fill="#13316B"/>
  <path d="M95.0509 72.2429V89.5795H91.5826V78.8308C91.0887 78.7892 91.0156 79.5971 90.8382 79.9923C90.2747 81.2406 89.4084 84.3993 88.8484 85.2142C88.5631 85.6268 86.3019 85.5782 85.8601 85.072L83.2581 78.8308V89.5795H79.7898V72.2429C80.8404 72.437 83.5642 71.8961 84.3121 72.4024C84.9348 72.8219 87.116 80.2212 87.5926 80.2212C88.2535 79.3023 90.2329 72.5203 90.5877 72.2914C91.1061 71.9551 94.1499 72.4336 95.0509 72.2429Z" fill="#13316B"/>
  <path d="M122.077 73.4807C121.719 73.231 119.729 72.2429 119.499 72.2429H112.045V89.5795H119.499C119.653 89.5795 121.569 88.6815 121.872 88.4838C125.928 85.8244 126.085 76.258 122.077 73.4807ZM115.857 86.4589V75.3635C118.939 75.0306 120.759 75.7067 121.075 78.9868C121.482 83.1684 121.208 87.3292 115.857 86.4589Z" fill="#13316B"/>
  <path d="M110.309 83.6885C109.717 88.2792 107.001 90.6543 102.242 89.843C95.406 88.678 95.2669 72.9363 102.537 71.9273C107.178 71.2824 109.724 73.6748 110.309 78.1338C109.669 78.0229 106.688 78.3037 106.507 78.1234C106.12 77.7316 106.656 74.6283 103.578 75.0271C99.5805 75.5403 99.9875 88.9623 105.101 86.6253C106.527 85.9735 106.388 83.8202 106.507 83.6989C106.688 83.5186 109.669 83.7994 110.309 83.6885Z" fill="#13316B"/>
  <path d="M77.0174 72.2429H73.5491V89.5795H77.0174V72.2429Z" fill="#13316B"/>
</svg>