<svg xmlns="http://www.w3.org/2000/svg" width="150" height="150" viewBox="0 0 150 150" fill="none">
  <circle cx="75" cy="75" r="75" fill="#F3FCF7"/>
  <path d="M15 62V89H42.363V62H15ZM35.3771 82.1768H21.9859V68.8203H35.3771V82.1768Z" fill="#13316B"/>
  <path d="M84.2959 76.3353C83.9341 72.2391 78.486 70.7751 75.6934 73.6514L75.5504 72.2305C75.0339 72.2649 73.963 72.0496 73.6391 72.4974C72.9883 73.4045 73.8725 84.0627 73.5136 86.0147C73.6274 87.028 74.7684 86.6978 75.5504 86.7265V80.7559C79.6854 83.9508 84.7774 81.7462 84.2959 76.3353ZM78.3926 80.6956C74.5262 80.1502 74.64 74.4063 78.0921 73.7174C83.9195 72.5548 83.9283 81.4793 78.3926 80.6956Z" fill="#13316B"/>
  <path d="M60.7091 81.7491C60.8521 82.5184 58.8211 82.2256 58.3805 82.0304C56.8018 81.3329 54.6132 77.4175 52.8448 76.4932V81.752C52.8448 82.3318 50.8051 82.3318 50.8051 81.752V68.8203H52.8448V74.2197C54.479 73.4045 57.0323 69.5638 58.3805 68.9667C59.1012 68.6481 59.9504 68.872 60.7033 68.8232C60.8346 69.314 60.4932 69.3887 60.2685 69.6757C59.5331 70.6115 54.5111 74.9029 54.6132 75.4598C55.4507 76.8003 60.4961 80.6009 60.7091 81.7491Z" fill="#13316B"/>
  <path d="M125.911 73.6514C124.831 73.3902 124.645 72.5262 123.369 72.2994C120.892 71.8545 118.283 72.6697 117.329 75.0752C115.178 80.5062 121.753 84.8119 125.911 80.4717V82.1797H127.659V72.2305C125.996 72.2075 125.713 71.843 125.911 73.6514ZM123.077 80.6899C118.158 81.5281 117.443 74.524 121.467 73.7174C126.559 72.6955 127.32 79.9694 123.077 80.6899Z" fill="#13316B"/>
  <path d="M98.2532 73.6514C95.7057 71.3464 91.0163 71.7023 89.674 75.0752C87.535 80.4516 94.1708 84.8119 98.2532 80.4717V82.1797L100.004 82.1768V72.2305C98.3349 72.2075 98.0606 71.843 98.2532 73.6514ZM92.452 80.0325C88.6731 77.0156 93.7827 71.022 97.2844 74.6015C100.345 77.7275 95.91 82.7911 92.452 80.0325Z" fill="#13316B"/>
  <path d="M69.7259 72.2305L69.5829 73.9384C67.7037 70.9244 62.0338 71.9721 61.1321 75.3479C59.7606 80.4889 64.6484 84.2637 69.081 81.1377C69.4691 80.865 69.3086 80.4344 69.7259 80.4746V82.1797H71.4738V72.2305H69.7259ZM63.7117 79.8086C60.4201 76.5937 65.2204 71.3091 68.7162 74.4982C72.11 77.5983 67.1784 83.1901 63.7117 79.8086Z" fill="#13316B"/>
  <path d="M111.647 75.2158V82.1768H109.902V76.3525C109.902 74.2197 107.541 73.0945 105.61 73.8695C105.201 74.0332 104.081 75.1756 104.081 75.5V81.752C104.081 82.3318 102.041 82.3318 102.041 81.752V72.2305C103.17 72.196 104.177 71.9607 104.084 73.3672C105.694 71.754 109.327 71.7167 110.783 73.5021C110.979 73.7432 111.647 75.0407 111.647 75.2158Z" fill="#13316B"/>
  <path d="M133.174 74.0619C130.294 74.9403 132.733 81.6745 131.257 82.1395C130.802 82.2802 130.186 82.1424 129.696 82.1768V72.2305C130.828 72.1961 131.832 71.9607 131.738 73.3672C132.73 72.5061 133.524 72.0181 134.939 72.2305C135.179 74.7307 134.732 73.5883 133.174 74.0619Z" fill="#13316B"/>
  <path d="M87.7773 68.8203H86.0294V82.1768H87.7773V68.8203Z" fill="#13316B"/>
  <path d="M115.432 68.8203H113.687V82.1768H115.432V68.8203Z" fill="#13316B"/>
</svg>