<svg xmlns="http://www.w3.org/2000/svg" width="150" height="150" viewBox="0 0 150 150" fill="none">
  <circle cx="75" cy="75" r="75" fill="#F3FCF7"/>
  <path d="M84.0584 77.2893V88.3555C84.0584 88.3616 83.9733 88.4474 83.9673 88.4474H82.2073C82.2 88.4474 82.1162 88.3616 82.1162 88.3555V80.7135C82.1162 80.6817 81.985 80.5874 81.9352 80.6217L78.5658 85.6379L75.2838 80.7478C75.2048 80.5898 75.0749 80.7392 75.0749 80.836V88.3861C74.7166 88.4265 73.5274 88.5441 73.2553 88.4155C73.2262 88.4021 73.1327 88.3053 73.1327 88.2943V77.2893C73.1327 77.2893 73.2177 77.1974 73.2238 77.1974H75.2267L78.5658 82.395C78.669 82.3962 78.8257 82.1341 78.8876 82.0472C79.8399 80.7049 80.6537 79.1631 81.5805 77.7902C81.7178 77.5869 81.8477 77.3701 82.0251 77.1974H83.9673C83.9733 77.1974 84.0584 77.2832 84.0584 77.2893Z" fill="#13316B"/>
  <path d="M96.981 65.0057C96.8729 64.9359 96.2692 64.6739 96.2582 64.6322C96.2327 64.5293 96.9567 64.1117 97.0113 63.9256C97.9284 62.8123 97.8494 61.0047 96.738 60.0531C96.4477 59.8045 95.2379 59.2228 94.893 59.2228H89.0056C88.985 59.2534 88.9145 59.2975 88.9145 59.3147V70.3809C88.9145 70.387 88.9983 70.4727 89.0056 70.4727H95.0145C95.6558 70.4727 97.0891 69.8175 97.5348 69.3423C98.7313 68.0662 98.4482 65.9524 96.981 65.0057ZM90.9175 61.0868C90.9175 61.0868 91.0013 60.9961 91.0086 60.9961C91.928 60.9961 93.0261 60.919 93.9213 60.9961C94.2492 61.0231 94.8286 61.1468 95.1007 61.3354C95.7469 61.7836 95.7578 62.9618 95.2051 63.481C95.0169 63.6574 94.2893 63.9305 94.0427 63.9305H91.0086C91.0013 63.9305 90.9175 63.8447 90.9175 63.8386V61.0868ZM95.5125 68.4055C95.4347 68.4447 94.8772 68.6382 94.8323 68.6382H90.9175V65.7344C90.9175 65.7271 91.0013 65.6426 91.0086 65.6426H94.4679C94.7047 65.6426 95.3825 65.8398 95.5999 65.9696C96.4708 66.4901 96.421 67.945 95.5125 68.4055Z" fill="#13316B"/>
  <path d="M32.9936 82.9939C32.8612 82.9106 32.249 82.673 32.2235 82.6387C32.1834 82.5824 32.2466 82.5248 32.2866 82.4881C32.4348 82.3521 32.7178 82.2211 32.8915 82.0411C34.7839 80.0681 33.16 77.4412 30.676 77.1974H25.0911C25.085 77.1974 25 77.2832 25 77.2893V88.2943C25.1701 88.4131 25.5296 88.4363 25.7567 88.4498C27.4827 88.5539 30.9845 88.6372 32.5065 87.9685C34.6248 87.039 34.9746 84.2381 32.9936 82.9939ZM26.9422 79.0626C26.9422 79.0455 27.0139 79.0014 27.0333 78.9708H30.3116C30.3505 78.9708 30.8364 79.1275 30.9117 79.1606C31.9891 79.6333 31.9283 81.2156 30.8874 81.6908C30.7805 81.7398 30.274 81.9051 30.1902 81.9051H27.0333C27.0272 81.9051 26.9422 81.8206 26.9422 81.8133V79.0626ZM32.283 85.2987C32.2235 85.9417 31.8457 86.3287 31.2518 86.5209C31.185 86.543 30.6481 86.674 30.6153 86.674H27.0333C27.0272 86.674 26.9422 86.5895 26.9422 86.5822V83.6172C28.2978 83.6576 29.7468 83.3907 31.0829 83.6968C31.9125 83.8867 32.3644 84.4218 32.283 85.2987Z" fill="#13316B"/>
  <path d="M33.3762 70.3196C33.3762 70.3392 33.296 70.4127 33.3154 70.4727H25.0911C25.085 70.4727 25 70.387 25 70.3809V59.3147C25 59.3073 25.085 59.2228 25.0911 59.2228H33.1636C33.1709 59.2228 33.2547 59.3073 33.2547 59.3147V60.9655C33.2547 60.9655 33.1709 61.0574 33.1636 61.0574H27.094C27.088 61.0574 27.0029 61.1419 27.0029 61.148V63.7774C27.0029 63.7835 27.088 63.8692 27.094 63.8692H32.5271C32.5077 63.9293 32.5879 64.0015 32.5879 64.0223V65.612C32.5879 65.612 32.5029 65.7038 32.4968 65.7038H27.094C27.088 65.7038 27.0029 65.7883 27.0029 65.7957V68.6382H33.2851C33.2924 68.6382 33.3762 68.7239 33.3762 68.73V70.3196Z" fill="#13316B"/>
  <path d="M121.237 67.9683C120.895 69.5628 119.533 70.3245 118.05 70.627C117.613 71.3839 117.398 72.2706 116.956 73.0115C116.891 73.0544 116.829 73.0409 116.759 73.0299C116.651 73.0127 115.547 72.5473 115.424 72.4751C115.368 72.442 115.272 72.3955 115.261 72.3293C115.232 72.1591 116.375 70.8695 116.35 70.534C115.284 70.4286 114.123 69.9731 113.257 69.3374C113.08 69.2064 112.66 68.9235 112.731 68.6982C112.826 68.3981 113.596 67.7699 113.749 67.4269C113.934 67.3192 114.292 67.7503 114.473 67.8678C115.576 68.5892 117.544 69.264 118.735 68.4434C119.29 68.0613 119.438 67.3449 119.092 66.7607C118.628 65.9745 116.517 65.7344 115.672 65.4381C114.8 65.1331 113.841 64.6641 113.403 63.8105C112.618 62.287 113.2 60.4597 114.654 59.6245C116.613 58.5002 119.157 59.0991 120.89 60.3948C120.942 60.4842 120.883 60.5822 120.844 60.6643C120.778 60.8051 119.971 61.9502 119.892 61.9661C119.055 61.437 118.186 60.9508 117.171 60.8712C116.095 60.7867 114.818 61.2521 115.163 62.587C115.418 63.5741 117.886 63.8827 118.73 64.1901C120.471 64.8233 121.67 65.9536 121.237 67.9683Z" fill="#13316B"/>
  <path d="M62.0551 88.5686L60.9959 90.9898C60.8575 91.089 59.5068 90.435 59.2942 90.3077C59.3841 90.0333 60.5162 88.6617 60.3862 88.5086C59.395 88.3763 58.444 88.0334 57.5998 87.4946C57.4565 87.4027 56.7775 86.9202 56.7508 86.8149C56.7228 86.6973 57.2925 85.9882 57.414 85.851C57.499 85.7543 57.8245 85.3906 57.918 85.3991C57.9812 85.4053 58.7549 86.0274 58.9505 86.1339C59.9963 86.7095 62.3102 87.2937 63.1179 86.0935C63.6487 85.3061 63.1507 84.5357 62.4122 84.1744C60.5757 83.2755 57.3897 83.5486 57.1164 80.7062C56.7277 76.6525 61.9191 76.3059 64.5087 78.089C64.686 78.2115 64.9763 78.3646 64.8937 78.5838C64.8512 78.6965 64.1941 79.6211 64.0884 79.7338C64.0277 79.7974 63.9815 79.8844 63.8783 79.8868C63.8115 79.8868 63.0244 79.37 62.8361 79.2855C61.8583 78.841 59.7704 78.3952 59.2226 79.6627C58.4294 81.4973 61.5741 81.7618 62.6296 82.1219C63.9062 82.5579 65.1585 83.3319 65.3031 84.8101C65.512 86.9716 64.0289 88.2294 62.0551 88.5686Z" fill="#13316B"/>
  <path d="M65.2484 59.1995C65.1767 59.1065 63.4799 58.9779 63.3062 59.2595C61.8644 62.7413 60.221 66.1484 58.7974 69.6363C58.7452 69.7661 58.5217 70.2535 58.5144 70.3307C58.5084 70.3882 58.5497 70.4593 58.5958 70.4727C59.0221 70.5915 59.9866 70.3833 60.4773 70.4727L61.7017 67.7919L66.7327 67.7784L66.9113 67.8433C67.0679 68.1654 67.8903 70.4727 68.0652 70.4727H70.0378L65.2484 59.1995ZM62.4802 66.0088C62.462 66.0088 62.3734 65.9181 62.3989 65.8691L64.1807 61.6673L64.3799 61.7726L66.0634 65.7014L66.0926 66.0088H62.4802Z" fill="#13316B"/>
  <path d="M111.1 70.1653L106.385 59.2632C106.149 58.9926 105.793 59.1603 105.517 59.164C105.267 59.1665 104.518 59.0881 104.396 59.2583C103.002 62.7107 101.342 66.0626 99.9495 69.5138C99.9034 69.6301 99.5026 70.4727 99.7479 70.4727H101.569C101.712 70.4727 102.549 68.136 102.721 67.8433L102.901 67.7784L107.932 67.7919L109.157 70.4727H111.129L111.1 70.1653ZM107.154 66.0088H103.572C103.541 66.0002 103.468 65.9181 103.49 65.8679C104.087 64.6396 104.518 63.2789 105.109 62.0555C105.207 61.8534 105.312 61.4811 105.497 61.8081C106.108 62.8944 106.448 64.3689 107.073 65.4785C107.094 65.5642 107.346 66.0088 107.154 66.0088Z" fill="#13316B"/>
  <path d="M56.5625 60.7206C54.4344 63.3732 52.2238 65.961 50.1285 68.6382H56.4714C56.4787 68.6382 56.5625 68.7239 56.5625 68.73V70.3809C56.5625 70.387 56.4787 70.4727 56.4714 70.4727H47.4587C47.4017 70.0967 47.3057 69.248 47.466 68.9223L53.7749 61.2141L53.8308 60.9961H47.6397V59.3147C47.6397 59.3073 47.7248 59.2228 47.7308 59.2228H56.4714C56.4787 59.2228 56.5625 59.3073 56.5625 59.3147V60.7206Z" fill="#13316B"/>
  <path d="M81.2088 68.7312C80.8456 69.264 79.7768 69.9265 79.1828 70.1776C73.8044 72.4469 69.0466 66.6272 71.9545 61.7346C73.7813 58.6594 78.1576 58.1206 80.8165 60.4095C80.8967 60.4781 81.2149 60.75 81.2003 60.8333L80.0865 62.162C79.8338 62.3531 79.71 62.0506 79.535 61.9147C75.585 58.8505 71.5366 63.3353 73.8712 67.1293C75.1988 69.286 77.7677 69.139 79.5958 67.7196C79.7294 67.6155 79.8302 67.3975 80.0173 67.4135C80.1946 67.4282 80.6136 67.8788 80.7509 68.0258C80.8213 68.1005 81.2222 68.5451 81.2392 68.5769C81.2841 68.6663 81.2525 68.6675 81.2088 68.7312Z" fill="#13316B"/>
  <path d="M44.9372 69.1868C42.8468 71.0802 39.3243 71.1683 37.1999 69.2811C33.6446 66.1214 35.305 59.622 40.0992 59.055C41.7256 58.8627 44.0553 59.3489 45.2153 60.5957C45.3295 60.7194 45.3987 60.81 45.276 60.968C45.021 61.1235 44.3165 62.2208 44.0893 62.2208C42.2892 60.5393 39.4178 60.2638 38.0015 62.5662C35.8043 66.141 39.4372 70.5438 43.3253 68.0528C43.6144 67.8666 44.0468 67.302 44.3359 67.4735C44.4015 67.5127 45.3343 68.4508 45.3647 68.5169C45.4752 68.7582 45.1157 69.0251 44.9372 69.1868Z" fill="#13316B"/>
  <path d="M50.1285 86.7046V88.3555C50.1285 88.4388 49.6135 88.4474 49.4945 88.451C47.1466 88.5208 44.7659 88.4167 42.4216 88.4155C42.3925 88.4021 42.2989 88.3053 42.2989 88.2943V77.2893C42.2989 77.2893 42.384 77.1974 42.39 77.1974H44.2108C44.2169 77.1974 44.3019 77.2832 44.3019 77.2893V86.5516H49.9767C49.9876 86.5516 50.1285 86.6936 50.1285 86.7046Z" fill="#13316B"/>
  <path d="M126 59.2228V70.3809C126 70.387 125.915 70.4727 125.909 70.4727H124.088C124.081 70.4727 123.997 70.387 123.997 70.3809V59.3147C123.997 59.3073 124.081 59.2228 124.088 59.2228H126Z" fill="#13316B"/>
  <path d="M85.6362 59.3147V70.3809C85.6362 70.387 85.5512 70.4727 85.5451 70.4727H83.7243C83.7183 70.4727 83.6333 70.387 83.6333 70.3809V59.3147C83.6333 59.2975 83.7049 59.2534 83.7243 59.2228H85.5451C85.5512 59.2228 85.6362 59.3073 85.6362 59.3147Z" fill="#13316B"/>
  <path d="M54.3166 77.1974L54.3081 88.3457C54.2413 88.5515 53.9947 88.38 53.8611 88.3861C53.3826 88.4082 52.8578 88.5392 52.3744 88.3861V77.2893C52.3744 77.2893 52.4594 77.1974 52.4655 77.1974H54.3166Z" fill="#13316B"/>
  <path d="M38.9611 77.2893V88.2943C38.9611 88.3004 38.8761 88.3861 38.87 88.3861H37.0493L37.0189 77.1974H38.87C38.8761 77.1974 38.9611 77.2832 38.9611 77.2893Z" fill="#13316B"/>
  <path d="M69.7948 77.473V88.3861H67.8526V77.1974H69.7037C69.8786 77.1974 69.7948 77.4387 69.7948 77.473Z" fill="#13316B"/>
  <path d="M69.8288 76.2238C69.7499 76.3377 67.8927 76.3316 67.8186 76.2238C67.7627 75.6115 67.7773 74.9918 67.8526 74.3856H69.7948C69.8058 74.9979 69.9199 75.609 69.8288 76.2238Z" fill="#13316B"/>
  <path d="M54.3203 76.2544C53.7761 76.2201 53.1056 76.4063 52.5845 76.3451C52.5226 76.3377 52.3744 76.3169 52.3744 76.2495V74.3856H54.3166C54.4017 74.4395 54.4187 76.1846 54.3203 76.2544Z" fill="#13316B"/>
  <path d="M38.9611 74.3856V76.2802C38.3659 76.3475 37.7258 76.1993 37.1161 76.3267C37.0736 76.3181 36.9582 76.2055 36.9582 76.1883V74.5387C36.9582 74.5178 37.0383 74.4456 37.0189 74.3856H38.9611Z" fill="#13316B"/>
</svg>