<svg width="61" height="60" viewBox="0 0 61 60" fill="none" xmlns="http://www.w3.org/2000/svg">
<rect x="0.5" width="60" height="60" rx="30" fill="#D7E3FF"/>
<path d="M45.1065 28.334C45.0254 28.2716 44.7407 28.1042 44.6686 28.1042H40.1458V18.0804L40.0629 17.4996C39.762 16.1669 38.7205 15.2849 37.3979 14.9999H23.5989C22.1573 15.1816 20.8527 16.639 20.8527 18.0804V28.1042H16.33C16.2579 28.1042 15.9732 28.2716 15.8921 28.334C15.3551 28.7509 15.402 29.3745 15.829 29.8573L29.6929 44.6346C30.1902 45.1353 30.7993 45.1086 31.3074 44.6346L45.1713 29.8573C45.5984 29.3745 45.6434 28.7509 45.1083 28.334H45.1065ZM30.5236 42.4734L18.8418 30.0925H22.0907C22.3754 30.0925 22.8763 29.5847 22.8637 29.2658V18.28C22.9322 17.4746 23.2457 17.0488 24.098 16.9847H36.9672C37.8213 17.0773 38.079 17.5602 38.1403 18.3423L38.1367 29.2658C38.1241 29.5847 38.625 30.0925 38.9097 30.0925H42.1585L30.5254 42.4752L30.5236 42.4734Z" fill="#2862FF"/>
<path d="M31.5038 32.9521C31.5435 33.8109 31.6552 35.1668 30.4011 35.0741C29.2983 34.9922 29.4893 33.7272 29.4947 32.9521C28.8496 32.8969 28.0171 33.1606 27.5613 32.578C27.0964 31.9847 27.4279 31.0778 28.1937 30.9691C29.219 30.8248 30.5434 31.06 31.6065 30.9656C33.0228 30.8391 33.0265 28.995 31.9093 28.7384C31.1921 28.5745 29.9992 28.7759 29.1992 28.701C26.145 28.416 25.1611 24.4927 27.7559 22.9195C28.3325 22.5685 28.8226 22.4972 29.4821 22.4081C29.4298 21.5779 29.4154 20.165 30.6317 20.3236C31.6714 20.459 31.5128 21.6527 31.5002 22.417C32.1615 22.4491 33.0409 22.2442 33.4715 22.8856C33.8571 23.4558 33.5598 24.2949 32.8697 24.4C31.8102 24.5622 29.9037 24.1613 28.974 24.523C27.9018 24.9399 28.1235 26.5185 29.2731 26.7073C30.8011 26.9603 32.1363 26.2619 33.5436 27.3861C35.9059 29.2765 34.4914 32.9985 31.502 32.9486L31.5038 32.9521Z" fill="#2862FF"/>
</svg>
