<svg width="60" height="60" viewBox="0 0 60 60" fill="none" xmlns="http://www.w3.org/2000/svg">
<rect width="60" height="60" rx="30" fill="#D7E3FF"/>
<path d="M45.8401 39.9383L41.4989 32.4327C46.1788 22.8554 37.8056 12.0783 27.3159 14.293C19.1749 16.0107 14.8389 24.9881 18.4886 32.4711L14.2801 39.7291C13.7405 40.4737 13.9885 41.4555 14.9489 41.5967L19.7092 41.3404L21.7995 45.5518C22.264 46.1378 23.1179 46.15 23.5527 45.5239L27.1692 39.2582C29.0359 39.7203 30.9882 39.6924 32.8602 39.2687L36.4418 45.5239C36.8713 46.1238 37.6886 46.1674 38.1688 45.592L40.2853 41.3404C40.514 41.3264 40.7498 41.316 40.9785 41.3282C42.1275 41.3805 43.2975 41.5671 44.4466 41.5967C44.7906 41.6055 45.0874 41.6369 45.407 41.4904C45.9833 41.2236 46.1649 40.4702 45.8401 39.9383ZM22.7896 42.6623C22.7442 42.6954 22.6674 42.5472 22.6429 42.5088C22.1295 41.6839 21.7977 40.4388 21.2442 39.6419C20.9892 39.2739 20.5998 39.1082 20.1528 39.1257L16.9833 39.3297L19.7214 34.5323C19.8227 34.5079 19.828 34.548 19.8821 34.6038C20.0515 34.773 20.2174 35.052 20.385 35.2334C21.7314 36.6843 23.2419 37.823 25.058 38.6339L22.7896 42.6623ZM21.1341 32.7536C16.5433 25.9647 21.1307 16.7135 29.249 16.1572C37.7549 15.5747 43.5455 24.7806 39.2183 32.1781C35.2543 38.953 25.5312 39.2547 21.1341 32.7536ZM39.4698 39.1606C39.0489 39.2652 38.8725 39.4657 38.6612 39.8197C38.1915 40.6045 37.8283 41.6316 37.3708 42.4652C37.3289 42.5402 37.376 42.6274 37.2398 42.596L34.9365 38.599C36.3964 37.9922 37.7741 37.1011 38.9092 36.0007C39.3528 35.5699 39.7038 35.0119 40.1124 34.6038C40.1665 34.548 40.1717 34.5079 40.273 34.5323L43.0111 39.3297L39.4698 39.1606Z" fill="#2862FF"/>
<path d="M34.9697 27.0006C34.4318 26.3937 33.763 25.9787 33.0698 25.5688C34.5157 23.539 33.4801 20.6372 31.1157 19.9187C27.7175 18.8881 24.9357 22.6479 26.9265 25.5688C26.448 25.888 25.9276 26.1513 25.4945 26.5367C23.8478 27.9981 22.7075 31.205 24.4817 32.9768C24.9445 33.4389 25.7023 33.8034 26.3624 33.8644C28.671 34.0772 31.2903 33.7092 33.6338 33.8644C37.2223 33.2733 36.9429 29.2205 34.9697 27.0006ZM29.7816 21.8875C30.4155 21.8021 31.0913 22.1439 31.4021 22.7002C32.2176 24.165 30.4626 25.7624 29.0691 24.7632C27.8782 23.9104 28.3706 22.0759 29.7816 21.8875ZM33.3719 31.7369C31.2083 31.573 28.7513 31.9427 26.6244 31.7369C25.2204 31.6009 25.76 29.735 26.2332 28.9397C26.7641 28.0417 27.8031 27.3389 28.8473 27.2203C30.6337 27.0163 32.5843 27.1697 33.6548 28.7793C34.1821 29.5728 34.83 31.5957 33.3719 31.7369Z" fill="#2862FF"/>
</svg>
