<svg width="61" height="60" viewBox="0 0 61 60" fill="none" xmlns="http://www.w3.org/2000/svg">
<rect x="0.5" width="60" height="60" rx="30" fill="#D7E3FF"/>
<path d="M46.749 35.4106C46.0296 32.6219 43.6087 30.4727 40.7893 30.1645C40.8809 29.0843 40.751 27.949 40.5154 26.8888C38.8811 19.5279 30.9365 15.4777 24.1292 18.5195C18.1336 21.1988 15.3534 28.3873 18.0068 34.5483C20.632 40.6431 27.7321 43.5116 33.7308 40.7493C35.906 44.6557 40.8426 45.7343 44.3578 42.9176C45.8723 41.7041 46.7646 39.8735 47.0002 37.9334V36.6784C46.9713 36.3103 46.8437 35.7778 46.749 35.4106ZM23.9813 38.7031C24.5378 34.2234 30.2994 32.7049 32.9285 36.3622C32.8228 37.2716 32.8933 38.1825 33.0882 39.0719C30.2109 40.4451 26.7568 40.2216 23.9813 38.7031ZM28.4717 26.8337C32.3336 26.298 32.815 32.1101 29.2701 32.4878C25.5177 32.8877 25.0552 27.3072 28.4717 26.8337ZM33.575 34.1899C33.5383 34.241 33.5179 34.3072 33.4404 34.2857C32.9935 33.8202 32.4276 33.5121 31.8852 33.1823C34.7162 30.7441 33.5414 25.8637 29.8924 25.114C25.1765 24.1456 22.4323 30.0232 25.9662 33.2119C24.1863 34.0222 22.9371 35.7036 22.3634 37.5742C20.9568 36.284 19.8321 34.712 19.2584 32.8534C16.983 25.4821 22.9528 18.3016 30.4387 19.4177C35.5177 20.1737 39.3601 24.9041 39.0259 30.1581C37.0652 30.4376 35.2868 31.5169 34.1558 33.1696C33.9398 33.4857 33.7707 33.916 33.575 34.1899ZM44.8924 39.2196C43.4177 43.1979 38.1273 43.9396 35.668 40.4978C33.233 37.0904 35.4105 32.277 39.4893 31.9153C43.3488 31.5736 46.2684 35.5064 44.8924 39.2196Z" fill="#2862FF"/>
<path d="M43.1879 36.58L39.4716 40.3826L36.9825 37.8438L38.2412 36.5601L39.4716 37.8127L41.9403 35.3082L43.1879 36.58Z" fill="#2862FF"/>
</svg>
