<svg width="60" height="60" viewBox="0 0 60 60" fill="none" xmlns="http://www.w3.org/2000/svg">
<rect width="60" height="60" rx="30" fill="#D7E3FF"/>
<path d="M40.8779 38.4503C44.2238 34.5203 45.2363 29.0725 43.4223 24.2013C41.2619 18.3994 35.492 14.6389 29.2809 15.0274C17.7051 15.7515 11.8464 29.4162 19.3618 38.3264C24.4119 44.3129 33.5198 44.9834 39.4497 39.8784L44.6465 45.0001L46 43.5993L40.8779 38.4503ZM20.5175 36.4475C14.8329 28.8265 19.8294 17.7965 29.2809 17.1321C38.1261 16.5108 44.607 25.1144 41.5318 33.4613C38.2482 42.376 26.2004 44.0668 20.5175 36.4475Z" fill="#2862FF"/>
<path d="M29.6756 20.1591C25.8366 20.5018 23.4443 24.5083 24.8751 28.0781C26.6188 32.43 32.7183 32.9186 35.137 28.9086C37.5944 24.8344 34.4102 19.7364 29.6756 20.1591ZM32.5847 28.7908C30.0676 30.8701 26.2356 28.8831 26.4668 25.6332C26.5863 23.9468 27.9749 22.3922 29.6747 22.1971C33.4812 21.7603 35.4798 26.3978 32.5847 28.7908Z" fill="#2862FF"/>
<path d="M37.7763 35.2272L36.3666 36.5876C35.4209 35.7273 34.3038 35.2158 33.0145 35.1349C31.3929 35.033 28.7659 35.0058 27.1646 35.1464C25.9482 35.2527 24.9463 35.8503 24.0076 36.5779L22.6506 35.171C23.8002 34.0004 25.3998 33.2525 27.0442 33.1181C28.8072 32.9739 31.1091 33.0539 32.8809 33.1638C34.1395 33.242 34.9753 33.3386 36.1143 33.9424C36.7014 34.2535 37.3562 34.7307 37.7763 35.2272Z" fill="#2862FF"/>
</svg>
