<svg width="60" height="60" viewBox="0 0 60 60" fill="none" xmlns="http://www.w3.org/2000/svg">
<rect width="60" height="60" rx="30" fill="#D7E3FF"/>
<path d="M29.2677 14.0208C20.3844 14.505 16.6212 22.8391 21.3843 30.2102C22.4134 31.8042 23.8431 33.2683 24.1539 35.229C24.2622 35.9107 24.1183 36.7171 24.4025 37.3116C24.6635 37.859 25.1866 38.2016 25.7895 38.2533C28.4934 38.4855 31.5427 38.0886 34.2821 38.2337C36.0456 37.8412 35.5173 36.1528 35.8147 34.84C36.2392 32.9666 37.8544 31.2987 38.8392 29.6753C43.6174 21.8013 38.2673 13.5304 29.2677 14.0208ZM38.8445 24.8852C38.4787 27.9691 36.8492 29.3567 35.369 31.7944C34.4694 33.2754 33.9082 34.816 34.0006 36.5854H30.8101V29.3575C31.1751 29.1359 31.5711 29.006 31.905 28.723C33.4669 27.3995 33.2494 24.8372 31.4947 23.8074C28.8246 22.2392 25.8366 25.1816 27.2999 27.8783C27.704 28.6215 28.3415 29.0113 29.0821 29.3575V36.5854H25.8916C25.9928 34.7288 25.3553 33.1303 24.3901 31.5942C22.7233 28.9401 21.1285 27.5348 20.9705 24.0967C20.4421 12.6537 40.2741 12.8353 38.8445 24.8852ZM29.0803 25.3578C30.4301 24.2453 32.0852 26.19 30.9193 27.3684C29.5909 28.7105 27.64 26.546 29.0803 25.3578Z" fill="#2862FF"/>
<path d="M24.2827 39.582V41.3229H35.623V39.582H24.2827Z" fill="#2862FF"/>
<path d="M26.6555 42.5183V44.2591H28.9474V46H30.9577V44.2591H33.2505V42.5183H26.6555Z" fill="#2862FF"/>
<path d="M18.505 29.2554L15.7958 30.8232L16.6642 32.3308L19.3734 30.763L18.505 29.2554Z" fill="#2862FF"/>
<path d="M17.1283 23.358H14V25.0989H17.1283V23.358Z" fill="#2862FF"/>
<path d="M16.4102 16.0648L15.5418 17.5724L18.251 19.1402L19.1194 17.6326L16.4102 16.0648Z" fill="#2862FF"/>
<path d="M41.4959 29.2547L40.6275 30.7623L43.3367 32.3301L44.2051 30.8224L41.4959 29.2547Z" fill="#2862FF"/>
<path d="M46 23.358H42.8717V25.0989H46V23.358Z" fill="#2862FF"/>
<path d="M43.5903 16.0649L40.8811 17.6327L41.7496 19.1403L44.4588 17.5726L43.5903 16.0649Z" fill="#2862FF"/>
</svg>
