<svg width="28" height="29" viewBox="0 0 28 29" fill="none" xmlns="http://www.w3.org/2000/svg">
<path d="M9.8 4.5H18.2C21.4 4.5 24 7.1 24 10.3V18.7C24 20.2383 23.3889 21.7135 22.3012 22.8012C21.2135 23.8889 19.7383 24.5 18.2 24.5H9.8C6.6 24.5 4 21.9 4 18.7V10.3C4 8.76174 4.61107 7.28649 5.69878 6.19878C6.78649 5.11107 8.26174 4.5 9.8 4.5ZM9.6 6.5C8.64522 6.5 7.72955 6.87928 7.05442 7.55442C6.37928 8.22955 6 9.14522 6 10.1V18.9C6 20.89 7.61 22.5 9.6 22.5H18.4C19.3548 22.5 20.2705 22.1207 20.9456 21.4456C21.6207 20.7705 22 19.8548 22 18.9V10.1C22 8.11 20.39 6.5 18.4 6.5H9.6ZM19.25 8C19.5815 8 19.8995 8.1317 20.1339 8.36612C20.3683 8.60054 20.5 8.91848 20.5 9.25C20.5 9.58152 20.3683 9.89946 20.1339 10.1339C19.8995 10.3683 19.5815 10.5 19.25 10.5C18.9185 10.5 18.6005 10.3683 18.3661 10.1339C18.1317 9.89946 18 9.58152 18 9.25C18 8.91848 18.1317 8.60054 18.3661 8.36612C18.6005 8.1317 18.9185 8 19.25 8ZM14 9.5C15.3261 9.5 16.5979 10.0268 17.5355 10.9645C18.4732 11.9021 19 13.1739 19 14.5C19 15.8261 18.4732 17.0979 17.5355 18.0355C16.5979 18.9732 15.3261 19.5 14 19.5C12.6739 19.5 11.4021 18.9732 10.4645 18.0355C9.52678 17.0979 9 15.8261 9 14.5C9 13.1739 9.52678 11.9021 10.4645 10.9645C11.4021 10.0268 12.6739 9.5 14 9.5ZM14 11.5C13.2044 11.5 12.4413 11.8161 11.8787 12.3787C11.3161 12.9413 11 13.7044 11 14.5C11 15.2956 11.3161 16.0587 11.8787 16.6213C12.4413 17.1839 13.2044 17.5 14 17.5C14.7956 17.5 15.5587 17.1839 16.1213 16.6213C16.6839 16.0587 17 15.2956 17 14.5C17 13.7044 16.6839 12.9413 16.1213 12.3787C15.5587 11.8161 14.7956 11.5 14 11.5Z" fill="white"/>
</svg>
