<svg width="28" height="29" viewBox="0 0 28 29" fill="none" xmlns="http://www.w3.org/2000/svg">
<path d="M24 16.217V23.6112H19.7132V16.712C19.7132 14.9785 19.0929 13.7961 17.5418 13.7961C16.3573 13.7961 15.6519 14.5937 15.3423 15.3643C15.229 15.6398 15.2 16.0236 15.2 16.4094V23.6112H10.9112C10.9112 23.6112 10.9693 11.9272 10.9112 10.7157H15.2V12.5435L15.1719 12.5856H15.2V12.5435C15.7691 11.6667 16.7862 10.4131 19.0639 10.4131C21.8847 10.4131 24 12.2569 24 16.217ZM6.42597 4.5C4.95997 4.5 4 5.46197 4 6.72757C4 7.9651 4.93191 8.95614 6.36986 8.95614H6.39792C7.89398 8.95614 8.82289 7.9651 8.82289 6.72757C8.79683 5.46197 7.89398 4.5 6.42597 4.5ZM4.25452 23.6112H8.54131V10.7157H4.25452V23.6112Z" fill="white"/>
</svg>
