<svg xmlns="http://www.w3.org/2000/svg" width="17" height="19" viewBox="0 0 17 19" fill="none">
  <path d="M16.0638 5.16086C16.0919 5.17535 16.1195 5.18511 16.1473 5.19097C16.1489 5.19125 16.1503 5.19153 16.1519 5.19181C16.1695 5.19515 16.1875 5.19766 16.2051 5.19766C16.3702 5.19766 16.5 5.06354 16.5 4.8929C16.5 4.88872 16.4989 4.88481 16.4987 4.88063C16.492 4.72755 16.3659 4.60013 16.2051 4.60013C16.0518 4.60013 15.9223 4.73425 15.9223 4.8929C15.9105 5.08808 14.164 6.17412 13.893 6.00348C13.8911 6.00348 13.8892 6.00348 13.8876 6.00348C13.8817 5.99957 13.8758 5.99567 13.8697 5.99232C13.8697 5.99205 13.8694 5.99177 13.8694 5.99149C13.5866 5.83283 13.6214 3.7221 13.7865 3.62395C13.8057 3.60973 13.8234 3.59355 13.8394 3.57599C13.8841 3.53221 13.9138 3.47477 13.9237 3.4112C13.9259 3.39921 13.9269 3.3875 13.9275 3.37551C13.9275 3.37272 13.9283 3.37021 13.9283 3.36742C13.9283 3.21797 13.829 3.09668 13.6933 3.06852C13.6741 3.06462 13.6537 3.06238 13.6331 3.06238C13.4798 3.06238 13.35 3.1965 13.35 3.35516C13.35 3.54894 11.622 4.62968 11.3287 4.48135C11.325 4.47884 11.321 4.47661 11.3172 4.47438C11.3105 4.46741 11.3038 4.46044 11.2972 4.45374C11.0143 4.29509 11.0491 2.18435 11.2142 2.0862C11.2808 2.04689 11.3311 1.97606 11.3485 1.89269C11.3491 1.88991 11.3496 1.88712 11.3501 1.88433C11.3531 1.86732 11.3552 1.85003 11.3555 1.83219C11.3555 1.83163 11.3555 1.83135 11.3555 1.83079C11.3555 1.83079 11.3555 1.83079 11.3555 1.83052C11.3555 1.83052 11.3555 1.83024 11.3555 1.82996C11.3555 1.65904 11.2257 1.5252 11.0724 1.5252C10.9073 1.5252 10.7775 1.65931 10.7775 1.81797C10.7775 2.02542 9.01924 3.11146 8.74818 2.94081C8.74015 2.93273 8.7324 2.92855 8.72437 2.92855C8.46214 2.77519 8.47525 0.784069 8.62563 0.565187C8.69493 0.527824 8.74791 0.460905 8.77012 0.37865C8.77119 0.375583 8.772 0.372237 8.7728 0.36917C8.77467 0.361084 8.77628 0.352998 8.77762 0.344633C8.78056 0.327625 8.78243 0.310337 8.78243 0.292771C8.78243 0.134117 8.65266 0 8.4996 0C8.35457 0 8.2371 0.103446 8.21061 0.23589C8.20687 0.25485 8.20472 0.274089 8.20472 0.294165C8.20472 0.296953 8.20553 0.299742 8.20553 0.30253C8.20606 0.315635 8.20713 0.32874 8.20927 0.341566C8.22346 0.438041 8.27938 0.517508 8.35858 0.561563C8.51298 0.753955 8.54 2.77463 8.26359 2.9291C8.24005 2.94137 8.21623 2.95364 8.19268 2.97818L8.21623 2.94137C7.96818 3.10003 6.44618 2.20917 6.19867 1.91667C6.21018 1.89269 6.21044 1.857 6.21044 1.83247C6.21044 1.83219 6.21044 1.83191 6.21044 1.83163C6.21044 1.83163 6.21044 1.83107 6.21044 1.83079C6.21044 1.65987 6.08067 1.52576 5.92761 1.52576C5.76251 1.52576 5.64478 1.65987 5.64478 1.83052C5.64478 1.9401 5.69214 2.03796 5.77429 2.08704C5.93938 2.18435 5.97497 4.29593 5.70338 4.45458C5.69187 4.46657 5.68037 4.46685 5.67983 4.47828C5.67876 4.47884 5.67769 4.47967 5.67662 4.48023C5.397 4.64251 3.65023 3.55089 3.65023 3.35627C3.6497 3.3493 3.64782 3.34289 3.64702 3.33619C3.63364 3.20208 3.54052 3.09557 3.41503 3.06991C3.39603 3.06601 3.37596 3.06378 3.35536 3.06378C3.33609 3.06378 3.31736 3.06601 3.29916 3.06991C3.17153 3.0978 3.07226 3.21937 3.07226 3.36882C3.07226 3.37077 3.07279 3.37244 3.07279 3.37439C3.07306 3.38722 3.0744 3.39977 3.07654 3.41232C3.08697 3.48119 3.12149 3.54225 3.17073 3.58714C3.1841 3.6008 3.19855 3.61391 3.21381 3.62534C3.36499 3.72126 3.40138 5.77177 3.14236 5.98312C3.12711 5.99093 3.11212 5.99957 3.09768 6.00878C2.80013 6.15321 1.07771 5.08752 1.07771 4.89429C1.07771 4.89429 1.07771 4.89429 1.07771 4.89402C1.07771 4.89402 1.07771 4.89402 1.07771 4.89374C1.07771 4.73508 0.94793 4.60097 0.782833 4.60097C0.629509 4.60097 0.5 4.73508 0.5 4.89374C0.5 4.89374 0.5 4.89374 0.5 4.89402C0.5 4.89402 0.5 4.89402 0.5 4.89429C0.5 5.06522 0.629777 5.19905 0.782833 5.19905C0.841968 5.19905 0.888795 5.18679 0.924383 5.16225C1.08948 5.06494 2.88334 6.08964 2.87157 6.41921V6.4312C2.87157 6.4312 2.87157 6.4312 2.87157 6.43148V6.44347C2.88334 6.77277 1.08975 7.79775 0.924383 7.70043C0.88933 7.67618 0.842236 7.66391 0.784439 7.66391C0.783903 7.66391 0.783368 7.66391 0.782833 7.66391C0.629509 7.66391 0.5 7.79803 0.5 7.96895C0.5 8.10781 0.599273 8.2277 0.726909 8.25558C0.745104 8.25949 0.763835 8.26172 0.783101 8.26172C0.842236 8.26172 0.889063 8.24945 0.924651 8.22519C1.08975 8.12788 2.88361 9.16485 2.87184 9.48215V9.50641V9.5184C2.88361 9.83543 1.09002 10.8727 0.924651 10.7754C0.889063 10.7508 0.841701 10.7386 0.783101 10.7386C0.629777 10.7386 0.500268 10.8727 0.500268 11.0313C0.500268 11.202 0.630044 11.3361 0.783101 11.3361C0.842236 11.3361 0.889063 11.3238 0.924651 11.2993C1.08975 11.202 2.88361 12.227 2.87184 12.5563V12.5688C2.87184 12.5688 2.87184 12.5688 2.87184 12.5691C2.87184 12.5694 2.87184 12.5691 2.87184 12.5694V12.5808C2.88361 12.9101 1.09002 13.9351 0.924651 13.8378C0.889063 13.8132 0.841701 13.8009 0.783101 13.8009C0.629777 13.8009 0.500268 13.9351 0.500268 14.1057C0.500268 14.1057 0.500268 14.1057 0.500268 14.106C0.500268 14.106 0.500268 14.106 0.500268 14.1063C0.500268 14.2649 0.630044 14.399 0.783101 14.399C0.948198 14.399 1.07797 14.2649 1.07797 14.1063C1.07797 14.1063 1.07797 14.1063 1.07797 14.106C1.07797 14.106 1.07797 14.106 1.07797 14.1057C1.07797 13.913 2.78942 12.8535 3.095 12.9898C3.11079 13.0004 3.12738 13.0096 3.14423 13.0183C3.40084 13.2372 3.36472 15.2785 3.21407 15.3747C3.19668 15.3875 3.18063 15.4023 3.16564 15.4182C3.11962 15.4622 3.08751 15.5208 3.07707 15.5866C3.07466 15.6002 3.07306 15.6142 3.07279 15.6278C3.07279 15.6292 3.07252 15.6303 3.07252 15.6317C3.07252 15.8027 3.2023 15.9365 3.35536 15.9365C3.50841 15.9365 3.63257 15.8183 3.64729 15.6627C3.64809 15.6563 3.64996 15.6499 3.65023 15.6435C3.65023 15.4547 5.29425 14.4213 5.64772 14.5081C5.65976 14.5164 5.67261 14.5245 5.68545 14.5318C5.69 14.5354 5.69642 14.5385 5.70311 14.5451C5.97417 14.7038 5.93938 16.8145 5.77402 16.9127C5.69107 16.9618 5.64451 17.0591 5.64451 17.1692C5.64451 17.3401 5.76225 17.474 5.92734 17.474C6.08067 17.474 6.21018 17.3398 6.21018 17.1815C6.22195 16.974 7.96845 15.888 8.23951 16.0586C8.25128 16.0709 8.26306 16.0709 8.26306 16.0709C8.53974 16.2259 8.51244 18.2578 8.35671 18.4398C8.28874 18.478 8.23844 18.5427 8.21677 18.6216C8.21596 18.6244 8.21516 18.6272 8.21436 18.63C8.21222 18.6389 8.21034 18.6478 8.20901 18.6573C8.2066 18.6713 8.20526 18.6855 8.20499 18.7C8.20499 18.7022 8.20446 18.7044 8.20446 18.7067C8.20446 18.7265 8.2066 18.7463 8.21034 18.7652C8.23737 18.8974 8.35457 19 8.49933 19C8.65266 19 8.78216 18.8659 8.78216 18.7072C8.78216 18.6897 8.78002 18.6724 8.77708 18.6556C8.77574 18.6473 8.77414 18.6395 8.77226 18.6314C8.77146 18.628 8.77039 18.6247 8.76932 18.6216C8.74711 18.5397 8.69413 18.473 8.62536 18.4356C8.47685 18.2243 8.46107 16.2942 8.71045 16.0823C8.72651 16.074 8.7423 16.065 8.75728 16.055C9.0559 15.9117 10.7767 16.9765 10.7767 17.182C10.7767 17.3407 10.9065 17.4745 11.0716 17.4745C11.2249 17.4745 11.3547 17.3404 11.3547 17.1698C11.3547 17.1698 11.3547 17.1695 11.3547 17.1692C11.3547 17.1508 11.3525 17.133 11.3493 17.1154C11.3488 17.1129 11.3483 17.1101 11.3477 17.1076C11.3303 17.0239 11.2795 16.9526 11.2134 16.9132C11.0483 16.8159 11.0127 14.7044 11.2964 14.5457C11.302 14.5398 11.3076 14.534 11.3135 14.5281C11.3199 14.5242 11.3266 14.5203 11.3327 14.5159C11.6386 14.3801 13.3495 15.4513 13.3495 15.6437C13.3495 15.7525 13.411 15.8484 13.4988 15.8989C13.5392 15.9226 13.5844 15.9371 13.6329 15.9371C13.798 15.9371 13.9277 15.8029 13.9277 15.6323C13.9277 15.6301 13.9272 15.6278 13.9269 15.6256C13.9267 15.6131 13.9253 15.6005 13.9232 15.5882C13.9136 15.5255 13.8841 15.4683 13.8402 15.4251C13.8237 15.4067 13.8055 15.39 13.7859 15.3755C13.6208 15.2782 13.5852 13.1666 13.8689 13.008C13.8689 12.9957 13.8807 12.9957 13.8927 12.9957C14.1638 12.825 15.9103 13.9108 15.922 14.1063C15.922 14.1261 15.9242 14.1456 15.9279 14.1645C15.9547 14.2967 16.0708 14.3996 16.2051 14.3996C16.3702 14.3996 16.5 14.2655 16.5 14.1068C16.5 14.1068 16.5 14.1068 16.5 14.1065C16.5 14.1065 16.5 14.1065 16.5 14.1063C16.5 13.9356 16.3702 13.8015 16.2051 13.8015C16.1578 13.8015 16.1109 13.8138 16.0636 13.8383C15.8985 13.9356 14.1046 12.9106 14.1164 12.5813V12.5724C14.1164 12.5724 14.1164 12.5705 14.1164 12.5696C14.1164 12.5685 14.1164 12.5677 14.1164 12.5666V12.5568C14.1046 12.2275 15.8982 11.2025 16.0636 11.2998C16.0917 11.3143 16.1192 11.3241 16.1471 11.33C16.1487 11.3302 16.15 11.3305 16.1516 11.3308C16.1693 11.3344 16.1869 11.3367 16.2049 11.3367C16.37 11.3367 16.4997 11.2025 16.4997 11.0319C16.4997 10.8732 16.3702 10.7391 16.2049 10.7391C16.1869 10.7391 16.1693 10.7413 16.1516 10.745C16.15 10.7453 16.1484 10.7455 16.1468 10.7458C16.119 10.7517 16.0911 10.7614 16.0633 10.7759C15.8982 10.8732 14.1043 9.83627 14.1161 9.51896V9.50948C14.1161 9.50948 14.1161 9.50753 14.1161 9.50669C14.1161 9.50558 14.1161 9.50474 14.1161 9.50363V9.48215C14.1043 9.16513 15.8979 8.12788 16.0633 8.22519C16.0914 8.23969 16.119 8.24917 16.1468 8.25531C16.1484 8.25558 16.1497 8.25586 16.1513 8.25614C16.169 8.25949 16.1869 8.262 16.2046 8.262C16.2817 8.262 16.3504 8.23188 16.4023 8.18476C16.4061 8.18142 16.4104 8.17863 16.4138 8.17528C16.4173 8.17194 16.4197 8.16775 16.4229 8.16441C16.4703 8.11227 16.4995 8.04395 16.4995 7.96951C16.4995 7.79858 16.37 7.66447 16.2046 7.66447C16.2041 7.66447 16.2035 7.66447 16.203 7.66447C16.1859 7.66447 16.169 7.6667 16.1521 7.67004C16.15 7.67032 16.1481 7.67088 16.146 7.67116C16.1184 7.67701 16.0909 7.68677 16.063 7.70099C15.8979 7.7983 14.1041 6.77361 14.1159 6.44403V6.43483C14.1159 6.43483 14.1159 6.43288 14.1159 6.43176C14.1159 6.43064 14.1159 6.42953 14.1159 6.42869V6.41949C14.1041 6.09019 15.8977 5.06522 16.063 5.16253L16.0638 5.16086ZM11.5452 4.88035C11.5452 4.56332 13.3035 3.53835 13.4924 3.62339C13.6575 3.74524 13.6813 5.83228 13.4094 5.99093C13.4033 5.99483 13.3974 5.9993 13.3915 6.00348C13.3821 6.00961 13.3728 6.01603 13.3637 6.02272C13.3591 6.02606 13.3549 6.02969 13.3506 6.03331C13.3396 6.04223 13.3292 6.05144 13.319 6.0612C13.3147 6.06538 13.3104 6.06928 13.3062 6.07374C13.2981 6.08211 13.2904 6.09103 13.2829 6.09995C13.2176 6.17635 13.1734 6.27227 13.1643 6.3785C13.1641 6.38129 13.1641 6.38408 13.1638 6.38659C13.163 6.39719 13.1614 6.4075 13.1614 6.41838C13.1496 6.74767 11.946 7.55349 11.4978 7.26016C11.4759 7.24873 11.4639 7.23786 11.4433 7.23618C11.4374 7.23284 11.4312 7.23033 11.4253 7.22698C10.9686 6.94955 11.0515 5.48904 11.3207 5.31979C11.4623 5.23419 11.5449 5.07553 11.5449 4.89234V4.88007L11.5452 4.88035ZM11.5281 10.3515C11.4146 10.2679 11.2795 10.2152 11.1329 10.2038C11.1264 10.2032 11.12 10.2032 11.1136 10.2027C11.0999 10.2018 11.0863 10.2004 11.0724 10.2004C10.9207 10.2004 10.7802 10.2445 10.6603 10.3195C10.2862 10.4767 9.78827 10.2707 9.83349 9.59118V9.40827C9.7979 8.88351 10.0928 8.63925 10.4 8.62699H10.4238C10.5067 8.63786 10.5899 8.65849 10.6729 8.68833C10.7336 8.72402 10.7995 8.75134 10.8693 8.76947C10.8752 8.77114 10.8811 8.77253 10.887 8.77421C10.9033 8.77811 10.9199 8.78146 10.9365 8.78424C10.9536 8.78731 10.971 8.79038 10.9889 8.79233C10.9908 8.79233 10.9924 8.79233 10.9943 8.79261C11.0199 8.79512 11.0454 8.79763 11.0727 8.79763C11.1222 8.79763 11.1701 8.79205 11.2172 8.78229C11.3306 8.76082 11.4347 8.71454 11.5246 8.64901C11.98 8.41424 13.1151 9.17042 13.1494 9.5053C13.1146 9.82735 11.9859 10.581 11.5281 10.3513V10.3515ZM9.30154 12.5387C9.30074 12.5178 9.29967 12.4969 9.29753 12.4759C9.29619 12.4645 9.29458 12.4531 9.29271 12.4417C9.28896 12.4168 9.28415 12.392 9.27826 12.3672C9.27692 12.3622 9.27612 12.3572 9.27478 12.3521C9.26568 12.3176 9.25552 12.2833 9.24187 12.2495C9.17471 12.082 9.06045 11.9501 8.92184 11.862C8.59539 11.6333 8.48568 11.1008 9.00426 10.7809C9.08052 10.7486 9.15303 10.709 9.22127 10.6636C9.22902 10.6599 9.23625 10.6557 9.24428 10.6524C9.82252 10.2495 10.2472 10.6524 10.2707 11.0798C10.2825 11.3726 10.4476 11.6411 10.6956 11.763C11.1556 12.0195 11.0852 13.4588 10.8254 13.6663V13.6668C10.5188 13.8009 9.2796 13.1421 9.30341 12.6053V12.5685C9.30341 12.5585 9.30181 12.5487 9.30154 12.5387ZM7.92296 11.9916C7.91146 12.0039 7.90075 12.0167 7.89005 12.0298C7.88336 12.0379 7.87667 12.046 7.87052 12.0544C7.85767 12.0711 7.84563 12.0881 7.83413 12.1057C7.83172 12.1096 7.82931 12.1135 7.8269 12.1171C7.79131 12.174 7.76268 12.2356 7.74154 12.3011C7.7378 12.3128 7.73378 12.3243 7.73057 12.336C7.72656 12.3502 7.72308 12.3644 7.71987 12.3789C7.71505 12.3998 7.71131 12.421 7.70809 12.4425C7.70702 12.4506 7.70542 12.4587 7.70435 12.467C7.70034 12.501 7.69819 12.5353 7.69819 12.5699V12.6048C7.72174 13.1415 6.47107 13.8004 6.16442 13.6663C5.91049 13.463 5.83744 12.0792 6.2661 11.7811C6.53395 11.6526 6.70306 11.3885 6.72714 11.1013C6.72795 11.0941 6.72955 11.0871 6.73009 11.0796C6.7531 10.6624 7.15822 10.2698 7.71532 10.6136C7.74449 10.636 7.77472 10.6571 7.80576 10.6769C7.8376 10.7001 7.87105 10.7216 7.91012 10.7374C8.51913 11.0525 8.40702 11.6322 8.0704 11.8675C8.01581 11.9032 7.96631 11.9448 7.92269 11.9916H7.92296ZM7.699 6.40806C7.69793 6.44905 7.70007 6.49031 7.70515 6.53186C7.70595 6.53827 7.70676 6.54441 7.70783 6.55082C7.71104 6.57313 7.71505 6.59543 7.72014 6.61746C7.72335 6.63196 7.72656 6.64618 7.7303 6.6604C7.73271 6.66877 7.73539 6.67685 7.73806 6.68522C7.7774 6.81376 7.84563 6.92808 7.93688 7.02037C7.93741 7.02093 7.93795 7.02148 7.93848 7.02204C7.96149 7.04519 7.98584 7.06693 8.0118 7.08701C8.02785 7.09984 8.04418 7.11238 8.0613 7.12409C8.06264 7.12493 8.06371 7.12605 8.06505 7.12688L8.06451 7.12632C8.3931 7.34911 8.51432 7.89785 7.97996 8.2224C7.89861 8.25809 7.82155 8.30159 7.74957 8.35234C7.17534 8.74577 6.7547 8.34509 6.73116 7.91959C6.72982 7.90175 6.72607 7.88446 6.72366 7.8669C6.7151 7.79412 6.69771 7.72107 6.66908 7.64997C6.588 7.44754 6.43816 7.29697 6.25941 7.21304C5.83877 6.90382 5.91209 5.53504 6.16496 5.33289C6.4716 5.19878 7.72254 5.85765 7.69873 6.3944V6.40806H7.699ZM9.27211 6.65427C9.27505 6.64339 9.27746 6.63252 9.28013 6.62164C9.28441 6.60324 9.28816 6.58456 9.2911 6.56588C9.29351 6.55166 9.29592 6.53772 9.29753 6.52322C9.29993 6.50119 9.301 6.47916 9.30181 6.45713C9.30207 6.44821 9.30341 6.43957 9.30341 6.43037V6.39356C9.2796 5.85653 10.5188 5.19794 10.8254 5.33206C11.0818 5.53727 11.1537 6.94536 10.7112 7.22531C10.6772 7.24288 10.6443 7.26239 10.6132 7.2847C10.5988 7.29446 10.5854 7.30589 10.5717 7.31649C10.5669 7.32039 10.5618 7.32429 10.557 7.3282C10.3978 7.46064 10.294 7.66112 10.2747 7.87944C10.2747 7.88056 10.2747 7.88167 10.2745 7.88279C10.2734 7.89506 10.271 7.90705 10.2707 7.91932C10.2469 8.34648 9.81075 8.74883 9.24428 8.34648C9.24294 8.34593 9.2416 8.34509 9.24026 8.34453C9.17203 8.29741 9.09951 8.25698 9.02325 8.22352C8.47525 7.8998 8.59673 7.34911 8.93736 7.12577C8.94004 7.12409 8.94218 7.12186 8.94459 7.11991C9.10728 7.0081 9.22073 6.84108 9.27184 6.65399L9.27211 6.65427ZM5.45934 8.63953C5.5332 8.69446 5.61508 8.73656 5.70204 8.76305C5.72318 8.76975 5.74459 8.77504 5.76626 8.78006C5.7684 8.78034 5.77027 8.7809 5.77241 8.78118C5.82352 8.79205 5.87597 8.79819 5.92841 8.79819C5.94206 8.79819 5.95517 8.79623 5.96855 8.7954C5.98327 8.79456 5.99772 8.794 6.01243 8.79233C6.021 8.79122 6.02956 8.78982 6.03812 8.78871C6.10448 8.77923 6.17057 8.76194 6.23533 8.73406C6.26476 8.72151 6.29259 8.70673 6.31988 8.69112C6.39855 8.65989 6.49247 8.63842 6.57757 8.62726H6.60111C6.90776 8.63953 7.20317 8.88379 7.16758 9.40854V9.4908C7.16758 9.4908 7.16758 9.49191 7.16758 9.49219C7.16758 9.49247 7.16758 9.49331 7.16758 9.49359V9.59118C7.2128 10.2659 6.71109 10.474 6.34718 10.3228C6.13579 10.1893 5.86821 10.1578 5.62203 10.2634C5.5629 10.2888 5.50858 10.3214 5.45881 10.3585C4.98252 10.5665 3.88543 9.82456 3.83995 9.50558C3.8857 9.17461 4.98332 8.41954 5.45934 8.63925V8.63953ZM8.97295 3.34317C8.97295 3.02614 10.7312 2.01287 10.9201 2.0862C11.0852 2.22032 11.1208 4.29509 10.8372 4.45374C10.7063 4.53293 10.6065 4.67486 10.5921 4.84048C10.5915 4.84494 10.5915 4.84968 10.591 4.85414C10.5905 4.86307 10.5891 4.87199 10.5891 4.88091C10.5776 5.19933 9.45272 5.9742 8.97295 5.76034C8.92853 5.72688 8.88144 5.69844 8.83193 5.6753C8.41049 5.36468 8.48408 3.94906 8.74872 3.7826C8.87635 3.70509 8.95582 3.56846 8.97001 3.41678C8.97001 3.4165 8.97001 3.41622 8.97001 3.41594C8.97161 3.40005 8.97295 3.38387 8.97295 3.3677V3.34317ZM7.99441 3.35543L8.01795 3.29409V3.34456C8.01769 3.35209 8.01688 3.35934 8.01688 3.36687C8.01688 3.54894 8.10679 3.69979 8.24379 3.78344C8.51244 3.95743 8.59459 5.42602 8.13194 5.69314C8.10411 5.70792 8.07709 5.72381 8.05167 5.74166C7.60561 6.01156 6.42424 5.20686 6.41247 4.88063C6.4122 4.87617 6.41113 4.87171 6.41086 4.86725C6.40551 4.75516 6.36457 4.6559 6.29982 4.5781C6.29982 4.5781 6.29982 4.5781 6.29982 4.57782C6.29901 4.57699 6.29821 4.57615 6.29741 4.57531C6.25807 4.52652 6.20991 4.48497 6.15345 4.45346C5.89416 4.30708 5.9054 2.39152 6.05926 2.11046C6.33032 2.09819 7.99441 3.03785 7.99441 3.35516V3.35543ZM5.44463 4.88035V4.89262C5.44463 4.89708 5.44543 4.90127 5.44543 4.90573C5.4457 4.92023 5.4465 4.93472 5.44811 4.94894C5.44918 4.95926 5.45078 4.9693 5.45265 4.97934C5.45399 4.98687 5.45533 4.99411 5.45694 5.00136C5.47005 5.06215 5.49359 5.11847 5.52597 5.16838C5.52597 5.16838 5.52624 5.16894 5.52651 5.16894C5.53507 5.18205 5.5439 5.19487 5.55353 5.20714C5.55434 5.20798 5.55514 5.20881 5.55594 5.20993C5.56718 5.22359 5.57869 5.23698 5.59126 5.24952C5.61963 5.27852 5.65173 5.30362 5.68652 5.32481C5.94072 5.51385 6.01886 6.97659 5.55327 7.23423C5.5522 7.23479 5.55086 7.23535 5.54979 7.2359C5.53775 7.23646 5.51527 7.24817 5.5035 7.26016C5.0553 7.55293 3.85199 6.74767 3.83995 6.41838C3.83968 6.4128 3.83834 6.40778 3.83807 6.4022C3.83031 6.25498 3.76128 6.12505 3.65665 6.03889C3.63632 6.02132 3.61491 6.00487 3.5919 5.99093C3.30906 5.83228 3.34385 3.74607 3.49771 3.62339H3.49717C3.68609 3.53779 5.45613 4.56305 5.44409 4.88035H5.44463ZM1.07878 7.96783C1.10232 7.76206 2.80815 6.70446 3.10035 6.85391C3.11801 6.86534 3.13621 6.87566 3.15547 6.88458C3.18705 6.90075 3.22103 6.9119 3.25689 6.91943C3.25822 6.91943 3.25929 6.91999 3.26063 6.92027C3.27508 6.92306 3.28953 6.92557 3.30452 6.92724C3.31013 6.9278 3.31602 6.92808 3.32164 6.92836C3.33315 6.92919 3.34439 6.93059 3.35616 6.93059C3.36499 6.93059 3.37382 6.92919 3.38292 6.92863C3.39228 6.92808 3.40138 6.9278 3.41075 6.92668C3.41797 6.92585 3.42493 6.92445 3.43188 6.92334C3.445 6.92111 3.45784 6.9186 3.47068 6.91553C3.47604 6.91414 3.48139 6.91274 3.48674 6.91135C3.49744 6.90828 3.50814 6.90465 3.51858 6.90075C3.54427 6.89183 3.56915 6.88151 3.5927 6.86952C3.86376 6.71087 5.15029 7.38201 5.12647 7.93103V7.95222C5.12647 7.95947 5.12647 7.96672 5.12647 7.97397V8.00436C5.15029 8.54138 3.86376 9.21225 3.5927 9.06586C3.58093 9.05973 3.56862 9.05471 3.55631 9.04941C3.55042 9.04662 3.54427 9.04383 3.53811 9.04105C3.53758 9.04105 3.53704 9.04049 3.53651 9.04049C3.48112 9.01707 3.42038 9.00396 3.35643 9.00396C3.33475 9.00396 3.31335 9.00591 3.29221 9.00898C3.28846 9.00954 3.28471 9.0101 3.28124 9.01065C3.26705 9.01289 3.25341 9.01595 3.23949 9.01958C3.232 9.02153 3.22424 9.0232 3.21702 9.02543C3.20016 9.03073 3.18357 9.03714 3.16751 9.04439C3.16484 9.04579 3.16216 9.04718 3.15922 9.0483C3.13888 9.05778 3.11908 9.06893 3.10035 9.0812C2.80682 9.22954 1.10259 8.17305 1.07905 7.96727L1.07878 7.96783ZM1.07878 11.0305C1.10206 10.8267 2.77524 9.78775 3.09125 9.91295C3.11293 9.92717 3.13567 9.93916 3.15922 9.94975C3.16216 9.95115 3.16537 9.95254 3.16832 9.95421C3.17206 9.95589 3.17608 9.95728 3.18009 9.95867C3.23334 9.98126 3.29167 9.99353 3.35589 9.99353C3.43884 9.99353 3.52099 9.96899 3.59216 9.93219C3.86322 9.7858 5.14975 10.4569 5.12594 10.9937V11.067C5.14975 11.6163 3.86322 12.2872 3.59216 12.1285C3.58333 12.1241 3.57397 12.1202 3.56487 12.116C3.50146 12.0845 3.43081 12.0663 3.35616 12.0663C3.33368 12.0663 3.31174 12.0686 3.29007 12.0716C3.28793 12.0719 3.28578 12.0722 3.28391 12.0728C3.26598 12.0755 3.24832 12.0792 3.2312 12.0842C3.22745 12.0853 3.22371 12.0861 3.22023 12.087C3.17527 12.1006 3.13326 12.1207 3.09473 12.1464C2.78675 12.2802 1.10232 11.2349 1.07905 11.0302L1.07878 11.0305ZM5.44409 14.118C5.45587 14.4347 3.68903 15.458 3.49771 15.3749C3.49744 15.3749 3.49717 15.3747 3.49691 15.3744C3.34385 15.2497 3.30853 13.1658 3.59136 13.0074C3.61491 12.9932 3.63658 12.9762 3.65719 12.9583C3.76529 12.8694 3.83513 12.7339 3.83914 12.5808C3.83914 12.5808 3.83914 12.5802 3.83914 12.58C3.85092 12.2507 5.05449 11.4448 5.50269 11.7382C5.51447 11.7504 5.53828 11.7627 5.55005 11.7627C6.01029 12.0131 5.94313 13.4348 5.69829 13.6629C5.5835 13.7259 5.49788 13.8355 5.46282 13.9688C5.46148 13.9735 5.46041 13.9783 5.45934 13.9833C5.45667 13.9953 5.45426 14.0076 5.45212 14.0198C5.45051 14.0301 5.44891 14.0402 5.44757 14.0508C5.4473 14.0547 5.44704 14.0586 5.44677 14.0628C5.4457 14.077 5.44409 14.0912 5.44409 14.106V14.1183V14.118ZM8.01688 15.6552C8.02866 15.9722 6.25861 16.9855 6.06996 16.9121C5.91664 16.778 5.88105 14.7032 6.15291 14.5446C6.21285 14.5111 6.26342 14.4662 6.3041 14.4133C6.36832 14.3335 6.40738 14.2329 6.4114 14.1236C6.4114 14.1216 6.41193 14.1194 6.4122 14.1174C6.42397 13.7881 7.62755 12.97 8.06398 13.2634H8.0522C8.0696 13.2723 8.09314 13.2812 8.1092 13.2901C8.11 13.2907 8.11107 13.2912 8.11187 13.2918C8.11642 13.2946 8.1207 13.2971 8.12311 13.2999C8.59486 13.5564 8.51271 15.0448 8.24085 15.2154H8.24138C8.22399 15.2269 8.2074 15.2397 8.19161 15.2536C8.10037 15.33 8.03856 15.4399 8.02197 15.5643C8.02197 15.5659 8.02143 15.5676 8.02116 15.569C8.01876 15.5885 8.01715 15.608 8.01715 15.6281C8.01715 15.629 8.01715 15.6295 8.01715 15.6303V15.6549L8.01688 15.6552ZM8.97241 15.656V15.632C8.97241 15.632 8.97241 15.6309 8.97241 15.6303C8.97241 15.6094 8.97081 15.5888 8.96867 15.5687C8.96867 15.5682 8.96867 15.5676 8.9684 15.5668C8.9494 15.4056 8.85816 15.2743 8.73079 15.2026C8.479 14.9843 8.41852 13.603 8.84237 13.3163C8.88679 13.2946 8.92853 13.2695 8.96706 13.2411C9.44389 13.0199 10.5768 13.7987 10.5883 14.1183C10.5883 14.3014 10.6943 14.4598 10.8364 14.5457C11.1192 14.7044 11.0844 16.7783 10.9193 16.9132C10.7304 16.9866 8.97215 15.9736 8.97215 15.6563L8.97241 15.656ZM11.5447 14.1185V14.1063C11.5447 14.1038 11.5444 14.1012 11.5441 14.099C11.5441 14.0828 11.5431 14.0669 11.5415 14.0511C11.5265 13.8918 11.4473 13.7561 11.3202 13.6791C11.0563 13.5129 10.971 12.0987 11.4015 11.7872C11.4189 11.7792 11.436 11.7711 11.4526 11.7616C11.4676 11.7577 11.4788 11.7485 11.497 11.739C11.9452 11.4462 13.1488 12.2515 13.1606 12.5808C13.1606 12.6591 13.1809 12.7325 13.2141 12.798C13.2176 12.805 13.2211 12.8117 13.2248 12.8186C13.2283 12.8248 13.2315 12.8309 13.2352 12.837C13.2765 12.9056 13.3329 12.9622 13.3998 13.0024C13.4028 13.0043 13.4054 13.0066 13.4086 13.0085C13.6797 13.1672 13.6567 15.2534 13.4916 15.3761C13.3027 15.4617 11.5447 14.4361 11.5447 14.1191V14.1185ZM15.9223 11.0313C15.8867 11.2388 14.1522 12.3128 13.893 12.1419C13.8625 12.1238 13.8317 12.1101 13.8006 12.0987C13.7915 12.0951 13.7824 12.0917 13.7731 12.0887C13.7685 12.0873 13.764 12.0861 13.7597 12.085C13.7196 12.0736 13.6773 12.0669 13.6334 12.0669C13.5462 12.0669 13.4646 12.0923 13.3942 12.1361C13.0846 12.2657 11.8521 11.6082 11.8639 11.0681V10.9945C11.8524 10.4648 13.0918 9.80532 13.3969 9.928C13.4341 9.94975 13.4742 9.9662 13.5167 9.97708C13.5175 9.97708 13.5181 9.97736 13.5189 9.97764C13.5288 9.98015 13.539 9.98238 13.5494 9.98433C13.5764 9.99018 13.6042 9.99409 13.6342 9.99409C13.7284 9.99409 13.8111 9.96955 13.8935 9.92075C14.1528 9.74983 15.8872 10.8236 15.9228 11.0313H15.9223ZM15.9223 7.96839C15.8867 8.17584 14.1522 9.24989 13.893 9.07897C13.8627 9.06112 13.8325 9.04774 13.8017 9.03631C13.7921 9.03268 13.7824 9.02878 13.7725 9.02571C13.7685 9.0246 13.7643 9.02348 13.7602 9.02237C13.7198 9.01093 13.6773 9.00424 13.6331 9.00424C13.5467 9.00424 13.4659 9.02906 13.3961 9.072C13.0899 9.19357 11.8521 8.53441 11.8636 8.0052V7.93186C11.8519 7.38257 13.1263 6.7117 13.4092 6.87036C13.4196 6.87566 13.4303 6.8804 13.4407 6.88514C13.4461 6.88765 13.4515 6.89043 13.4571 6.89267C13.4619 6.89462 13.4667 6.89657 13.4718 6.89852C13.483 6.90298 13.4945 6.90716 13.506 6.91079C13.5141 6.9133 13.5221 6.91553 13.5301 6.91748C13.5363 6.91888 13.5422 6.92027 13.5483 6.92138C13.5756 6.92724 13.6037 6.93142 13.6337 6.93142C13.7279 6.93142 13.8105 6.90689 13.893 6.85781C14.1522 6.68689 15.8867 7.76094 15.9223 7.96839Z" fill="#2862FF"/>
</svg>