<svg width="160" height="85" viewBox="0 0 160 85" fill="none" xmlns="http://www.w3.org/2000/svg">
<g clip-path="url(#clip0_6870_138)">
<path d="M73.4567 23.0958C73.5893 23.1606 73.7194 23.2043 73.8508 23.2305C73.8584 23.2317 73.8647 23.233 73.8723 23.2342C73.9556 23.2492 74.0402 23.2604 74.1236 23.2604C74.9029 23.2604 75.5154 22.6604 75.5154 21.897C75.5154 21.8783 75.5104 21.8608 75.5091 21.8421C75.4775 21.1572 74.8827 20.5871 74.1236 20.5871C73.3999 20.5871 72.7886 21.1872 72.7886 21.897C72.733 22.7702 64.4895 27.629 63.2101 26.8656C63.2012 26.8656 63.1924 26.8656 63.1848 26.8656C63.157 26.8481 63.1292 26.8306 63.1002 26.8157C63.1002 26.8144 63.0989 26.8132 63.0989 26.8119C61.7639 26.1021 61.9281 16.6589 62.7074 16.2198C62.7983 16.1562 62.8817 16.0838 62.9575 16.0053C63.1684 15.8094 63.3086 15.5524 63.3553 15.268C63.3654 15.2144 63.3705 15.162 63.373 15.1083C63.373 15.0959 63.3768 15.0846 63.3768 15.0722C63.3768 14.4035 62.9082 13.8609 62.2679 13.7349C62.1769 13.7174 62.0809 13.7075 61.9837 13.7075C61.26 13.7075 60.6474 14.3075 60.6474 15.0173C60.6474 15.8843 52.491 20.7194 51.1068 20.0557C51.0891 20.0445 51.0701 20.0345 51.0525 20.0245C51.0209 19.9934 50.9893 19.9622 50.9577 19.9322C49.6228 19.2224 49.7869 9.77924 50.5662 9.34013C50.8807 9.16424 51.1181 8.84739 51.2002 8.4744C51.2028 8.46193 51.2053 8.44945 51.2078 8.43698C51.2217 8.36088 51.2318 8.28354 51.2331 8.20371C51.2331 8.20121 51.2331 8.19996 51.2331 8.19747C51.2331 8.19747 51.2331 8.19747 51.2331 8.19622C51.2331 8.19622 51.2331 8.19497 51.2331 8.19373C51.2331 7.42904 50.6205 6.83027 49.8968 6.83027C49.1176 6.83027 48.505 7.43029 48.505 8.14009C48.505 9.06819 40.2059 13.927 38.9264 13.1636C38.8886 13.1274 38.8519 13.1087 38.814 13.1087C37.5763 12.4226 37.6382 3.51454 38.348 2.53529C38.6751 2.36814 38.9252 2.06875 39.03 1.70075C39.0351 1.68703 39.0389 1.67206 39.0426 1.65834C39.0515 1.62216 39.0591 1.58599 39.0654 1.54856C39.0793 1.47247 39.0881 1.39513 39.0881 1.31654C39.0881 0.606737 38.4756 0.00671387 37.7531 0.00671387C37.0686 0.00671387 36.5141 0.469518 36.3891 1.06206C36.3714 1.14688 36.3613 1.23296 36.3613 1.32277C36.3613 1.33525 36.3651 1.34772 36.3651 1.3602C36.3676 1.41883 36.3727 1.47746 36.3828 1.53484C36.4497 1.96646 36.7137 2.32198 37.0875 2.51908C37.8163 3.37982 37.9438 12.4201 36.6392 13.1112C36.528 13.1661 36.4156 13.221 36.3045 13.3307L36.4156 13.1661C35.2448 13.8759 28.0609 9.89026 26.8926 8.58168C26.9469 8.4744 26.9482 8.31473 26.9482 8.20495C26.9482 8.20371 26.9482 8.20246 26.9482 8.20121C26.9482 8.20121 26.9482 8.19872 26.9482 8.19747C26.9482 7.43278 26.3357 6.83276 25.6132 6.83276C24.834 6.83276 24.2782 7.43278 24.2782 8.19622C24.2782 8.68647 24.5018 9.12432 24.8895 9.34388C25.6688 9.77924 25.8368 19.2262 24.5548 19.936C24.5005 19.9896 24.4462 19.9909 24.4437 20.042C24.4386 20.0445 24.4336 20.0482 24.4285 20.0507C23.1087 20.7768 14.8639 15.893 14.8639 15.0223C14.8613 14.9911 14.8525 14.9624 14.8487 14.9325C14.7856 14.3324 14.346 13.8559 13.7537 13.7411C13.664 13.7237 13.5693 13.7137 13.472 13.7137C13.3811 13.7137 13.2927 13.7237 13.2068 13.7411C12.6044 13.8659 12.1358 14.4098 12.1358 15.0784C12.1358 15.0871 12.1383 15.0946 12.1383 15.1034C12.1396 15.1607 12.1459 15.2169 12.156 15.273C12.2053 15.5811 12.3682 15.8543 12.6006 16.0552C12.6637 16.1163 12.7319 16.1749 12.8039 16.2261C13.5175 16.6552 13.6893 25.8289 12.4667 26.7745C12.3947 26.8094 12.324 26.8481 12.2558 26.8893C10.8513 27.5354 2.72144 22.7677 2.72144 21.9032C2.72144 21.9032 2.72144 21.9032 2.72144 21.902C2.72144 21.902 2.72144 21.902 2.72144 21.9007C2.72144 21.1909 2.10888 20.5909 1.32961 20.5909C0.605918 20.5909 -0.00537109 21.1909 -0.00537109 21.9007C-0.00537109 21.9007 -0.00537109 21.9007 -0.00537109 21.902C-0.00537109 21.902 -0.00537109 21.902 -0.00537109 21.9032C-0.00537109 22.6679 0.607181 23.2667 1.32961 23.2667C1.60874 23.2667 1.82976 23.2118 1.99774 23.102C2.77701 22.6666 11.2441 27.251 11.1886 28.7255V28.7791C11.1886 28.7791 11.1886 28.7791 11.1886 28.7804V28.834C11.2441 30.3073 2.77827 34.8929 1.99774 34.4575C1.83229 34.349 1.61 34.2941 1.33719 34.2941C1.33467 34.2941 1.33214 34.2941 1.32961 34.2941C0.605918 34.2941 -0.00537109 34.8941 -0.00537109 35.6588C-0.00537109 36.2801 0.4632 36.8165 1.06565 36.9412C1.15153 36.9587 1.23994 36.9687 1.33088 36.9687C1.61 36.9687 1.83102 36.9138 1.999 36.8052C2.77827 36.3699 11.2454 41.0091 11.1898 42.4287V42.5373V42.5909C11.2454 44.0093 2.77953 48.6498 1.999 48.2144C1.83102 48.1046 1.60747 48.0498 1.33088 48.0498C0.607181 48.0498 -0.0041081 48.6498 -0.0041081 49.3596C-0.0041081 50.123 0.608445 50.723 1.33088 50.723C1.61 50.723 1.83102 50.6682 1.999 50.5584C2.77827 50.123 11.2454 54.7086 11.1898 56.1819V56.238C11.1898 56.238 11.1898 56.238 11.1898 56.2393C11.1898 56.2405 11.1898 56.2393 11.1898 56.2405V56.2917C11.2454 57.7649 2.77953 62.3505 1.999 61.9152C1.83102 61.8054 1.60747 61.7505 1.33088 61.7505C0.607181 61.7505 -0.0041081 62.3505 -0.0041081 63.114C-0.0041081 63.114 -0.0041081 63.114 -0.0041081 63.1152C-0.0041081 63.1152 -0.0041081 63.1152 -0.0041081 63.1165C-0.0041081 63.8263 0.608445 64.4263 1.33088 64.4263C2.11015 64.4263 2.7227 63.8263 2.7227 63.1165C2.7227 63.1165 2.7227 63.1165 2.7227 63.1152C2.7227 63.1152 2.7227 63.1152 2.7227 63.114C2.7227 62.252 10.8008 57.5117 12.2432 58.1217C12.3177 58.1691 12.396 58.2102 12.4755 58.2489C13.6868 59.2282 13.5163 68.3607 12.8052 68.7911C12.7231 68.8485 12.6473 68.9146 12.5766 68.9857C12.3594 69.1828 12.2078 69.4448 12.1585 69.7392C12.1472 69.8003 12.1396 69.8627 12.1383 69.9238C12.1383 69.93 12.1371 69.935 12.1371 69.9412C12.1371 70.7059 12.7496 71.3047 13.472 71.3047C14.1945 71.3047 14.7805 70.7758 14.85 70.0797C14.8538 70.051 14.8626 70.0223 14.8639 69.9936C14.8639 69.1491 22.6237 64.5261 24.2921 64.914C24.349 64.9515 24.4096 64.9876 24.4702 65.0201C24.4917 65.0363 24.522 65.05 24.5536 65.0799C25.833 65.7897 25.6688 75.2329 24.8883 75.672C24.4967 75.8916 24.277 76.327 24.277 76.8197C24.277 77.5844 24.8327 78.1832 25.612 78.1832C26.3357 78.1832 26.9469 77.5831 26.9469 76.8746C27.0025 75.9465 35.2461 71.0877 36.5255 71.8511C36.5811 71.906 36.6366 71.906 36.6366 71.906C37.9426 72.5996 37.8138 81.6897 37.0787 82.5043C36.7579 82.6752 36.5204 82.9646 36.4181 83.3177C36.4144 83.3301 36.4106 83.3426 36.4068 83.3551C36.3967 83.395 36.3878 83.4349 36.3815 83.4773C36.3701 83.5397 36.3638 83.6033 36.3626 83.6682C36.3626 83.6782 36.36 83.6881 36.36 83.6981C36.36 83.7867 36.3701 83.8753 36.3878 83.9601C36.5154 84.5514 37.0686 85.0104 37.7519 85.0104C38.4756 85.0104 39.0869 84.4104 39.0869 83.7006C39.0869 83.622 39.0767 83.5447 39.0629 83.4698C39.0565 83.4324 39.049 83.3975 39.0401 83.3613C39.0363 83.3463 39.0313 83.3314 39.0262 83.3177C38.9214 82.9509 38.6713 82.6528 38.3467 82.4856C37.6458 81.54 37.5713 72.9052 38.7484 71.9571C38.8241 71.9197 38.8987 71.8798 38.9694 71.8349C40.3789 71.1937 48.5012 75.9577 48.5012 76.8771C48.5012 77.5869 49.1138 78.1856 49.893 78.1856C50.6167 78.1856 51.2293 77.5856 51.2293 76.8222C51.2293 76.8222 51.2293 76.8209 51.2293 76.8197C51.2293 76.7374 51.2192 76.6575 51.204 76.5789C51.2015 76.5677 51.199 76.5552 51.1964 76.544C51.1143 76.1698 50.8744 75.8504 50.5624 75.6745C49.7832 75.2392 49.6152 65.7922 50.954 65.0824C50.9805 65.0562 51.007 65.03 51.0348 65.0038C51.0651 64.9864 51.0967 64.9689 51.1257 64.949C52.5693 64.3415 60.6449 69.1341 60.6449 69.9949C60.6449 70.4814 60.9354 70.9105 61.3497 71.1363C61.5404 71.2423 61.7538 71.3072 61.9824 71.3072C62.7617 71.3072 63.3742 70.7072 63.3742 69.9437C63.3742 69.9338 63.3717 69.9238 63.3705 69.9138C63.3692 69.8577 63.3629 69.8015 63.3528 69.7467C63.3073 69.466 63.1684 69.2102 62.9612 69.0169C62.8829 68.9346 62.7971 68.8597 62.7049 68.7948C61.9256 68.3595 61.7576 58.9125 63.0964 58.2027C63.0964 58.1479 63.152 58.1479 63.2088 58.1479C64.4882 57.3844 72.7318 62.242 72.7873 63.1165C72.7873 63.205 72.7974 63.2923 72.8151 63.3772C72.9414 63.9685 73.4896 64.4288 74.1236 64.4288C74.9029 64.4288 75.5154 63.8287 75.5154 63.1189C75.5154 63.1189 75.5154 63.1189 75.5154 63.1177C75.5154 63.1177 75.5154 63.1177 75.5154 63.1165C75.5154 62.353 74.9029 61.753 74.1236 61.753C73.9 61.753 73.679 61.8079 73.4555 61.9177C72.6762 62.353 64.2091 57.7674 64.2647 56.2941V56.2542C64.2647 56.2542 64.2647 56.2455 64.2647 56.2418C64.2647 56.2368 64.2647 56.233 64.2647 56.228V56.1844C64.2091 54.7111 72.6749 50.1255 73.4555 50.5609C73.5881 50.6257 73.7182 50.6694 73.8495 50.6956C73.8571 50.6968 73.8634 50.6981 73.871 50.6993C73.9544 50.7156 74.0377 50.7255 74.1223 50.7255C74.9016 50.7255 75.5142 50.1255 75.5142 49.3621C75.5142 48.6523 74.9029 48.0522 74.1223 48.0522C74.0377 48.0522 73.9544 48.0622 73.871 48.0784C73.8634 48.0797 73.8558 48.0809 73.8483 48.0822C73.7169 48.1084 73.5856 48.152 73.4542 48.2169C72.6749 48.6523 64.2078 44.013 64.2634 42.5934V42.551C64.2634 42.551 64.2634 42.5423 64.2634 42.5385C64.2634 42.5335 64.2634 42.5298 64.2634 42.5248V42.4287C64.2078 41.0104 72.6737 36.3699 73.4542 36.8052C73.5868 36.8701 73.7169 36.9125 73.8483 36.94C73.8558 36.9412 73.8622 36.9425 73.8697 36.9437C73.9531 36.9587 74.0377 36.9699 74.1211 36.9699C74.4848 36.9699 74.8094 36.8352 75.0544 36.6244C75.0721 36.6094 75.0923 36.5969 75.1087 36.5819C75.1251 36.567 75.1365 36.5483 75.1517 36.5333C75.3752 36.3 75.5129 35.9944 75.5129 35.6613C75.5129 34.8966 74.9016 34.2966 74.1211 34.2966C74.1185 34.2966 74.116 34.2966 74.1135 34.2966C74.0327 34.2966 73.9531 34.3066 73.8735 34.3216C73.8634 34.3228 73.8546 34.3253 73.8445 34.3266C73.7144 34.3528 73.5843 34.3964 73.4529 34.46C72.6737 34.8954 64.2066 30.311 64.2621 28.8365V28.7954C64.2621 28.7954 64.2621 28.7866 64.2621 28.7816C64.2621 28.7767 64.2621 28.7717 64.2621 28.7679V28.7268C64.2066 27.2535 72.6724 22.6679 73.4529 23.1032L73.4567 23.0958ZM52.1285 21.8408C52.1285 20.4225 60.4277 15.8369 61.3194 16.2173C62.0986 16.7625 62.211 26.0996 60.9278 26.8094C60.8988 26.8269 60.871 26.8468 60.8432 26.8656C60.799 26.893 60.7548 26.9217 60.7119 26.9516C60.6904 26.9666 60.6702 26.9828 60.65 26.999C60.5982 27.039 60.5489 27.0801 60.5009 27.1238C60.4807 27.1425 60.4605 27.16 60.4403 27.1799C60.4024 27.2173 60.3658 27.2573 60.3304 27.2972C60.0223 27.639 59.8139 28.0681 59.7709 28.5434C59.7697 28.5559 59.7697 28.5683 59.7684 28.5796C59.7646 28.627 59.757 28.6731 59.757 28.7218C59.7015 30.195 54.0205 33.8001 51.905 32.4878C51.8014 32.4367 51.7446 32.388 51.6473 32.3805C51.6195 32.3656 51.5905 32.3543 51.5627 32.3394C49.4068 31.0982 49.7983 24.564 51.0689 23.8068C51.737 23.4238 52.1273 22.714 52.1273 21.8945V21.8396L52.1285 21.8408ZM52.0477 46.3183C51.5122 45.9441 50.8744 45.7083 50.1823 45.6571C50.1519 45.6546 50.1216 45.6546 50.0913 45.6522C50.0269 45.6484 49.9625 45.6422 49.8968 45.6422C49.1807 45.6422 48.5176 45.8393 47.9518 46.1748C46.1861 46.8784 43.8357 45.9565 44.0492 42.9165V42.0982C43.8812 39.7505 45.273 38.6577 46.7229 38.6028H46.8353C47.2269 38.6515 47.6196 38.7438 48.0112 38.8773C48.2979 39.0369 48.6086 39.1592 48.9382 39.2403C48.966 39.2477 48.9938 39.254 49.0216 39.2615C49.0986 39.2789 49.1769 39.2939 49.2552 39.3064C49.3361 39.3201 49.4182 39.3338 49.5028 39.3426C49.5116 39.3426 49.5192 39.3426 49.528 39.3438C49.6493 39.355 49.7693 39.3663 49.8981 39.3663C50.1317 39.3663 50.3578 39.3413 50.5801 39.2976C51.1156 39.2016 51.6069 38.9945 52.0313 38.7014C54.1809 37.651 59.5385 41.0341 59.7002 42.5323C59.536 43.9731 54.2087 47.3449 52.0477 46.317V46.3183ZM41.5383 56.1033C41.5345 56.0097 41.5295 55.9162 41.5194 55.8226C41.5131 55.7715 41.5055 55.7203 41.4966 55.6692C41.479 55.5582 41.4562 55.4471 41.4284 55.3361C41.4221 55.3137 41.4183 55.2912 41.412 55.2687C41.3691 55.1141 41.3211 54.9606 41.2567 54.8097C40.9397 54.06 40.4004 53.4699 39.7461 53.0757C38.2053 52.0528 37.6875 49.6702 40.1351 48.2394C40.4951 48.0947 40.8374 47.9175 41.1594 47.7142C41.1961 47.698 41.2302 47.6793 41.268 47.6643C43.9974 45.8617 46.0017 47.6643 46.1129 49.5766C46.1685 50.8865 46.9477 52.0877 48.1185 52.6329C50.2896 53.7805 49.9574 60.2199 48.7311 61.148V61.1505C47.2837 61.7505 41.4348 58.8028 41.5472 56.4014V56.2368C41.5472 56.1919 41.5396 56.1482 41.5383 56.1033ZM35.0314 53.6558C34.9771 53.7107 34.9265 53.7681 34.876 53.8267C34.8445 53.8629 34.8129 53.899 34.7838 53.9365C34.7232 54.0113 34.6664 54.0874 34.6121 54.166C34.6007 54.1835 34.5893 54.2009 34.578 54.2171C34.41 54.4716 34.2748 54.7473 34.1751 55.0405C34.1574 55.0929 34.1384 55.144 34.1233 55.1964C34.1043 55.26 34.0879 55.3236 34.0728 55.3885C34.05 55.4821 34.0323 55.5769 34.0172 55.6729C34.0121 55.7091 34.0046 55.7453 33.9995 55.7827C33.9806 55.9349 33.9705 56.0883 33.9705 56.243V56.3989C34.0816 58.8003 28.1784 61.748 26.731 61.148C25.5324 60.2386 25.1876 54.0475 27.2109 52.714C28.4752 52.1389 29.2734 50.9576 29.387 49.6727C29.3908 49.6403 29.3984 49.6091 29.4009 49.5754C29.5096 47.7092 31.4217 45.9528 34.0513 47.4909C34.189 47.5907 34.3317 47.6855 34.4782 47.7741C34.6285 47.8776 34.7864 47.9737 34.9708 48.0448C37.8453 49.4544 37.3161 52.0478 35.7273 53.1007C35.4696 53.2604 35.236 53.4462 35.0301 53.6558H35.0314ZM33.9742 28.6756C33.9692 28.859 33.9793 29.0436 34.0033 29.2295C34.0071 29.2582 34.0109 29.2856 34.0159 29.3143C34.0311 29.4141 34.05 29.5139 34.074 29.6124C34.0892 29.6773 34.1043 29.7409 34.122 29.8045C34.1334 29.842 34.146 29.8781 34.1586 29.9156C34.3443 30.4906 34.6664 31.0021 35.0971 31.415C35.0996 31.4175 35.1021 31.42 35.1046 31.4225C35.2132 31.526 35.3282 31.6233 35.4507 31.7131C35.5265 31.7705 35.6035 31.8267 35.6843 31.8791C35.6907 31.8828 35.6957 31.8878 35.702 31.8915L35.6995 31.889C37.2505 32.8857 37.8226 35.3407 35.3004 36.7928C34.9164 36.9524 34.5527 37.147 34.213 37.3741C31.5026 39.1342 29.5171 37.3416 29.406 35.438C29.3997 35.3582 29.382 35.2809 29.3706 35.2023C29.3302 34.8767 29.2481 34.5499 29.113 34.2318C28.7303 33.3261 28.023 32.6525 27.1793 32.277C25.1939 30.8936 25.54 24.7698 26.7335 23.8654C28.1809 23.2654 34.0854 26.2131 33.973 28.6145V28.6756H33.9742ZM41.3994 29.7771C41.4133 29.7285 41.4247 29.6798 41.4373 29.6312C41.4575 29.5488 41.4752 29.4652 41.4891 29.3817C41.5004 29.318 41.5118 29.2557 41.5194 29.1908C41.5307 29.0923 41.5358 28.9937 41.5396 28.8952C41.5409 28.8552 41.5472 28.8166 41.5472 28.7754V28.6107C41.4348 26.2082 47.2837 23.2617 48.7311 23.8617C49.941 24.7798 50.2808 31.0794 48.1918 32.3319C48.0314 32.4105 47.876 32.4978 47.7295 32.5976C47.6613 32.6413 47.5982 32.6924 47.5338 32.7398C47.511 32.7573 47.487 32.7747 47.4643 32.7922C46.7128 33.3847 46.2228 34.2817 46.1318 35.2584C46.1318 35.2634 46.1318 35.2684 46.1306 35.2734C46.1255 35.3283 46.1142 35.3819 46.1129 35.4368C46.0005 37.3479 43.9418 39.148 41.268 37.3479C41.2617 37.3454 41.2554 37.3416 41.2491 37.3391C40.927 37.1283 40.5848 36.9474 40.2248 36.7978C37.6382 35.3495 38.2116 32.8857 39.8194 31.8865C39.832 31.8791 39.8421 31.8691 39.8535 31.8603C40.6214 31.3601 41.1569 30.6129 41.3981 29.7759L41.3994 29.7771ZM23.403 38.659C23.7516 38.9047 24.138 39.0931 24.5485 39.2116C24.6483 39.2415 24.7493 39.2652 24.8516 39.2877C24.8617 39.2889 24.8706 39.2914 24.8807 39.2927C25.1219 39.3413 25.3695 39.3687 25.617 39.3687C25.6814 39.3687 25.7433 39.36 25.8065 39.3563C25.8759 39.3525 25.9441 39.35 26.0136 39.3426C26.054 39.3376 26.0944 39.3313 26.1348 39.3263C26.4481 39.2839 26.76 39.2066 27.0657 39.0818C27.2046 39.0257 27.3359 38.9596 27.4648 38.8897C27.8361 38.75 28.2794 38.654 28.681 38.6041H28.7922C30.2396 38.659 31.6339 39.7517 31.4659 42.0994V42.4674C31.4659 42.4674 31.4659 42.4724 31.4659 42.4737C31.4659 42.4749 31.4659 42.4786 31.4659 42.4799V42.9165C31.6794 45.9353 29.3113 46.8659 27.5936 46.1898C26.5958 45.5923 25.3328 45.4513 24.1709 45.9241C23.8918 46.0376 23.6354 46.1836 23.4005 46.3495C21.1523 47.2801 15.974 43.9606 15.7593 42.5335C15.9753 41.0528 21.1561 37.6747 23.403 38.6577V38.659ZM39.9874 14.9636C39.9874 13.5453 48.2865 9.01205 49.1782 9.34013C49.9575 9.94016 50.1254 19.2224 48.7867 19.9322C48.169 20.2865 47.698 20.9215 47.6297 21.6624C47.6272 21.6824 47.6272 21.7036 47.6247 21.7236C47.6222 21.7635 47.6159 21.8034 47.6159 21.8433C47.5616 23.2679 42.2519 26.7346 39.9874 25.7778C39.7777 25.6281 39.5554 25.5008 39.3218 25.3973C37.3326 24.0076 37.6799 17.6743 38.929 16.9296C39.5314 16.5828 39.9065 15.9716 39.9735 15.293C39.9735 15.2917 39.9735 15.2905 39.9735 15.2892C39.9811 15.2181 39.9874 15.1458 39.9874 15.0734V14.9636ZM35.3686 15.0185L35.4797 14.7441V14.9699C35.4785 15.0036 35.4747 15.036 35.4747 15.0697C35.4747 15.8843 35.8991 16.5591 36.5457 16.9334C37.8138 17.7118 38.2015 24.2821 36.0178 25.4771C35.8864 25.5433 35.7589 25.6144 35.6389 25.6942C33.5335 26.9017 27.9573 23.3016 27.9018 21.8421C27.9005 21.8221 27.8955 21.8022 27.8942 21.7822C27.8689 21.2807 27.6757 20.8366 27.37 20.4886C27.37 20.4886 27.37 20.4886 27.37 20.4873C27.3663 20.4836 27.3625 20.4799 27.3587 20.4761C27.173 20.2578 26.9457 20.0719 26.6792 19.931C25.4553 19.2761 25.5084 10.7061 26.2346 9.44866C27.514 9.39377 35.3686 13.5977 35.3686 15.0173V15.0185ZM23.3335 21.8408V21.8957C23.3335 21.9157 23.3373 21.9344 23.3373 21.9543C23.3386 22.0192 23.3424 22.0841 23.3499 22.1477C23.355 22.1939 23.3626 22.2388 23.3714 22.2837C23.3777 22.3174 23.384 22.3498 23.3916 22.3822C23.4535 22.6542 23.5646 22.9062 23.7175 23.1294C23.7175 23.1294 23.7187 23.1319 23.72 23.1319C23.7604 23.1906 23.8021 23.248 23.8476 23.3028C23.8513 23.3066 23.8551 23.3103 23.8589 23.3153C23.912 23.3764 23.9663 23.4363 24.0256 23.4925C24.1595 23.6222 24.3111 23.7345 24.4753 23.8293C25.6751 24.675 26.0439 31.2192 23.8463 32.3718C23.8412 32.3743 23.8349 32.3768 23.8299 32.3793C23.773 32.3818 23.6669 32.4342 23.6114 32.4878C21.4959 33.7976 15.8162 30.195 15.7593 28.7218C15.7581 28.6968 15.7518 28.6744 15.7505 28.6494C15.7139 27.9908 15.388 27.4094 14.8942 27.024C14.7982 26.9454 14.6972 26.8718 14.5885 26.8094C13.2536 26.0996 13.4177 16.7662 14.144 16.2173H14.1414C15.0331 15.8344 23.3878 20.4212 23.331 21.8408H23.3335ZM2.72649 35.6538C2.83763 34.7332 10.8892 30.0016 12.2684 30.6703C12.3518 30.7214 12.4377 30.7676 12.5286 30.8075C12.6776 30.8799 12.838 30.9298 13.0073 30.9634C13.0136 30.9634 13.0186 30.9659 13.0249 30.9672C13.0932 30.9796 13.1614 30.9909 13.2321 30.9984C13.2586 31.0009 13.2864 31.0021 13.3129 31.0033C13.3672 31.0071 13.4203 31.0133 13.4758 31.0133C13.5175 31.0133 13.5592 31.0071 13.6021 31.0046C13.6463 31.0021 13.6893 31.0009 13.7335 30.9959C13.7676 30.9921 13.8004 30.9859 13.8333 30.9809C13.8952 30.9709 13.9558 30.9597 14.0164 30.946C14.0417 30.9397 14.0669 30.9335 14.0922 30.9273C14.1427 30.9135 14.1932 30.8973 14.2425 30.8799C14.3637 30.8399 14.4812 30.7938 14.5923 30.7401C15.8717 30.0303 21.9442 33.033 21.8318 35.4892V35.584C21.8318 35.6164 21.8318 35.6489 21.8318 35.6813V35.8173C21.9442 38.2198 15.8717 41.2212 14.5923 40.5663C14.5368 40.5389 14.4787 40.5164 14.4206 40.4927C14.3928 40.4802 14.3637 40.4678 14.3347 40.4553C14.3321 40.4553 14.3296 40.4528 14.3271 40.4528C14.0657 40.348 13.779 40.2894 13.4771 40.2894C13.3748 40.2894 13.2738 40.2981 13.174 40.3118C13.1563 40.3143 13.1386 40.3168 13.1222 40.3193C13.0553 40.3293 12.9908 40.343 12.9252 40.3592C12.8898 40.368 12.8532 40.3754 12.8191 40.3854C12.7395 40.4091 12.6612 40.4378 12.5854 40.4702C12.5728 40.4765 12.5602 40.4827 12.5463 40.4877C12.4503 40.5301 12.3568 40.58 12.2684 40.6349C10.8829 41.2986 2.83889 36.572 2.72775 35.6513L2.72649 35.6538ZM2.72649 49.3558C2.83637 48.4439 10.7339 43.7959 12.2255 44.3561C12.3278 44.4197 12.4351 44.4733 12.5463 44.5207C12.5602 44.527 12.5753 44.5332 12.5892 44.5407C12.6069 44.5482 12.6258 44.5544 12.6448 44.5606C12.8961 44.6617 13.1715 44.7166 13.4746 44.7166C13.8661 44.7166 14.2538 44.6068 14.5898 44.4421C15.8692 43.7872 21.9417 46.7898 21.8293 49.1912V49.5192C21.9417 51.9767 15.8692 54.9781 14.5898 54.2683C14.5481 54.2483 14.5039 54.2309 14.461 54.2122C14.1616 54.0712 13.8282 53.9901 13.4758 53.9901C13.3697 53.9901 13.2662 54.0001 13.1639 54.0138C13.1538 54.0151 13.1437 54.0163 13.1348 54.0188C13.0502 54.0313 12.9669 54.0475 12.886 54.0699C12.8683 54.0749 12.8507 54.0787 12.8342 54.0824C12.6221 54.1435 12.4238 54.2334 12.2419 54.3481C10.7882 54.9469 2.83763 50.2702 2.72775 49.3546L2.72649 49.3558ZM23.331 63.1688C23.3866 64.586 15.047 69.1641 14.144 68.7924C14.1427 68.7924 14.1414 68.7911 14.1402 68.7899C13.4177 68.2322 13.251 58.9088 14.586 58.2003C14.6972 58.1366 14.7995 58.0605 14.8967 57.9807C15.407 57.5828 15.7366 56.9765 15.7555 56.2917C15.7555 56.2917 15.7555 56.2892 15.7555 56.2879C15.8111 54.8147 21.4921 51.2095 23.6076 52.5219C23.6632 52.5767 23.7756 52.6316 23.8311 52.6316C26.0035 53.7518 25.6865 60.1126 24.5308 61.133C23.989 61.4149 23.5848 61.9052 23.4194 62.5015C23.4131 62.5227 23.408 62.5439 23.403 62.5663C23.3903 62.62 23.379 62.6749 23.3689 62.7297C23.3613 62.7759 23.3537 62.8208 23.3474 62.8682C23.3461 62.8857 23.3449 62.9031 23.3436 62.9218C23.3386 62.9855 23.331 63.0491 23.331 63.1152V63.1701V63.1688ZM35.4747 70.046C35.5303 71.4644 27.1755 75.9976 26.2851 75.6695C25.5614 75.0695 25.3935 65.7872 26.6767 65.0774C26.9596 64.9277 27.1983 64.7269 27.3903 64.4899C27.6934 64.1331 27.8778 63.6828 27.8967 63.1938C27.8967 63.1851 27.8992 63.1751 27.9005 63.1663C27.9561 61.6931 33.637 58.0331 35.697 59.3454H35.6414C35.7235 59.3853 35.8346 59.4252 35.9104 59.4652C35.9142 59.4677 35.9193 59.4702 35.923 59.4727C35.9445 59.4851 35.9647 59.4964 35.9761 59.5088C38.2028 60.6565 37.815 67.3154 36.5318 68.0788H36.5343C36.4522 68.13 36.3739 68.1873 36.2994 68.2497C35.8687 68.5915 35.577 69.083 35.4987 69.6394C35.4987 69.6469 35.4962 69.6543 35.4949 69.6606C35.4835 69.7479 35.476 69.8352 35.476 69.925C35.476 69.9288 35.476 69.9313 35.476 69.935V70.0448L35.4747 70.046ZM39.9848 70.0498V69.9425C39.9848 69.9425 39.9848 69.9375 39.9848 69.935C39.9848 69.8415 39.9773 69.7491 39.9672 69.6593C39.9672 69.6568 39.9672 69.6543 39.9659 69.6506C39.8762 68.9296 39.4455 68.342 38.8444 68.0214C37.6559 67.0447 37.3704 60.8648 39.371 59.5824C39.5807 59.4851 39.7777 59.3729 39.9596 59.2456C42.2102 58.2564 47.5578 61.7405 47.6121 63.1701C47.6121 63.9897 48.1122 64.6982 48.7829 65.0824C50.1179 65.7922 49.9537 75.0708 49.1744 75.6745C48.2827 76.0026 39.9836 71.4706 39.9836 70.051L39.9848 70.0498ZM52.126 63.1713V63.1165C52.126 63.1052 52.1248 63.094 52.1235 63.084C52.1235 63.0117 52.1184 62.9406 52.1109 62.8695C52.0401 62.1572 51.6663 61.5497 51.0664 61.2054C49.821 60.4619 49.4181 54.1348 51.4503 52.7414C51.5324 52.7052 51.6132 52.6691 51.6915 52.6266C51.7623 52.6092 51.8153 52.568 51.9012 52.5256C54.0167 51.2158 59.6977 54.8184 59.7532 56.2917C59.7532 56.6422 59.8492 56.9703 60.0058 57.2634C60.0223 57.2946 60.0387 57.3245 60.0564 57.3557C60.0728 57.3832 60.0879 57.4106 60.1056 57.4381C60.3001 57.7449 60.5666 57.9982 60.8824 58.1778C60.8962 58.1865 60.9089 58.1965 60.924 58.2052C62.2034 58.915 62.0948 68.2485 61.3156 68.7973C60.4239 69.1803 52.126 64.5922 52.126 63.1738V63.1713ZM72.7886 49.3596C72.6206 50.2877 64.4339 55.0929 63.2101 54.3282C63.0661 54.2471 62.9208 54.186 62.7743 54.1348C62.7314 54.1186 62.6884 54.1036 62.6442 54.0899C62.6228 54.0837 62.6013 54.0787 62.5811 54.0737C62.3916 54.0225 62.1921 53.9926 61.985 53.9926C61.5732 53.9926 61.188 54.1061 60.8558 54.302C59.3945 54.882 53.5772 51.9405 53.6328 49.5242V49.1949C53.5785 46.8248 59.4286 43.8745 60.8685 44.4234C61.044 44.5207 61.2335 44.5943 61.4343 44.643C61.4381 44.643 61.4406 44.6442 61.4444 44.6455C61.4911 44.6567 61.5391 44.6667 61.5884 44.6754C61.7159 44.7016 61.8473 44.7191 61.9887 44.7191C62.4333 44.7191 62.8236 44.6093 63.2126 44.391C64.4364 43.6263 72.6232 48.4302 72.7911 49.3596H72.7886ZM72.7886 35.6563C72.6206 36.5844 64.4339 41.3896 63.2101 40.6249C63.0673 40.5451 62.9246 40.4852 62.7794 40.4341C62.7339 40.4179 62.6884 40.4004 62.6417 40.3867C62.6228 40.3817 62.6026 40.3767 62.5836 40.3717C62.3929 40.3206 62.1921 40.2906 61.9837 40.2906C61.5757 40.2906 61.1943 40.4016 60.8647 40.5937C59.4198 41.1376 53.5772 38.1887 53.6315 35.821V35.4929C53.5759 33.0354 59.5916 30.0341 60.9266 30.7439C60.9758 30.7676 61.0263 30.7888 61.0756 30.81C61.1009 30.8212 61.1261 30.8337 61.1526 30.8437C61.1754 30.8524 61.1981 30.8611 61.2221 30.8699C61.2751 30.8898 61.3295 30.9085 61.3838 30.9248C61.4217 30.936 61.4595 30.946 61.4974 30.9547C61.5265 30.9609 61.5543 30.9672 61.5833 30.9722C61.7121 30.9984 61.8448 31.0171 61.9862 31.0171C62.4308 31.0171 62.8211 30.9073 63.2101 30.6877C64.4339 29.9231 72.6206 34.7282 72.7886 35.6563Z" fill="#2862FF"/>
<path d="M106.542 40.8901L102.42 33.6848H97.1836V51.2626H102.697V44.3854L106.539 50.8273V51.2626H112.052H112.055V33.6848H106.542V40.8901Z" fill="#2862FF"/>
<path d="M113.054 38.1607H118.624V51.2626H124.137H124.14V38.1607H129.429V33.6848H113.054V38.1607Z" fill="#2862FF"/>
<path d="M130.485 51.2626H142.737V51.2576V46.7818H135.998V44.7634H140.955V40.3425H135.998V38.1607H142.737V33.6848H130.485V51.2626Z" fill="#2862FF"/>
<path d="M158.721 46.7906C157.83 46.7906 157.55 46.3003 157.05 45.2625C156.826 44.8271 156.605 44.3893 156.326 43.9526C157.384 43.2404 158.665 41.9318 158.665 39.639C158.665 35.5997 156.326 33.6874 151.313 33.6874H144.461V51.2664H149.974V45.5881H150.198C151.256 45.5881 151.592 46.2979 152.148 47.6064C152.819 49.1894 153.763 51.3725 157.329 51.3725L157.326 51.3775C158.829 51.3775 159.553 51.2128 159.609 51.1579L160 51.0481V46.7893H158.721V46.7906ZM153.263 39.7462C153.263 41.111 151.592 41.2744 150.869 41.2744H149.977V38.1632H151.148C151.927 38.1632 153.263 38.3828 153.263 39.7462Z" fill="#2862FF"/>
<path d="M89.2735 33.6836H83.4258L80.0284 44.1098L76.8545 33.6836H70.782L77.3533 51.2614H82.4786L89.2735 33.6848V51.2627H94.7865V33.6848H89.2735V33.6836Z" fill="#2862FF"/>
</g>
<defs>
<clipPath id="clip0_6870_138">
<rect width="160" height="85" fill="white"/>
</clipPath>
</defs>
</svg>
