<svg width="28" height="29" viewBox="0 0 28 29" fill="none" xmlns="http://www.w3.org/2000/svg">
<path d="M11.8 17.9286L17.509 14.5L11.8 11.0714V17.9286ZM24.516 8.98C24.659 9.51714 24.758 10.2371 24.824 11.1514C24.901 12.0657 24.934 12.8543 24.934 13.54L25 14.5C25 17.0029 24.824 18.8429 24.516 20.02C24.241 21.0486 23.603 21.7114 22.613 21.9971C22.096 22.1457 21.15 22.2486 19.698 22.3171C18.268 22.3971 16.959 22.4314 15.749 22.4314L14 22.5C9.391 22.5 6.52 22.3171 5.387 21.9971C4.397 21.7114 3.759 21.0486 3.484 20.02C3.341 19.4829 3.242 18.7629 3.176 17.8486C3.099 16.9343 3.066 16.1457 3.066 15.46L3 14.5C3 11.9971 3.176 10.1571 3.484 8.98C3.759 7.95143 4.397 7.28857 5.387 7.00286C5.904 6.85429 6.85 6.75143 8.302 6.68286C9.732 6.60286 11.041 6.56857 12.251 6.56857L14 6.5C18.609 6.5 21.48 6.68286 22.613 7.00286C23.603 7.28857 24.241 7.95143 24.516 8.98Z" fill="white"/>
</svg>
